<svg height="682pt" viewBox="-110 -21 682 682.66669" width="682pt" xmlns="http://www.w3.org/2000/svg"><path d="m419.417969 81.960938h-81.578125c-1.324219-11.351563-6.675782-21.847657-15.371094-30.023438-9.902344-9.300781-22.980469-14.414062-36.800781-14.414062h-9.160157c-5.855468-21.546876-26.425781-37.523438-50.839843-37.523438-24.414063 0-44.988281 15.976562-50.839844 37.523438h-9.160156c-26.964844 0-49.238281 19.476562-52.164063 44.4375h-81.585937c-20.675781 0-37.5 16.828124-37.5 37.5v483.039062c0 20.671875 16.824219 37.5 37.5 37.5h387.5c20.671875 0 37.5-16.828125 37.5-37.5v-483.039062c0-20.671876-16.828125-37.5-37.5-37.5zm-253.75-19.4375h20c6.898437 0 12.5-5.585938 12.5-12.484376.011719-13.8125 12.347656-25.039062 27.5-25.039062 15.148437 0 27.484375 11.226562 27.5 25.039062 0 6.898438 5.597656 12.484376 12.5 12.484376h20c7.449219 0 14.445312 2.714843 19.6875 7.636718 5.039062 4.726563 7.8125 10.914063 7.8125 17.414063 0 1.472656-.152344 2.988281-.441407 4.4375-2.371093 11.9375-13.757812 20.601562-27.058593 20.601562h-120c-7.453125 0-14.449219-2.710937-19.703125-7.652343-2.648438-2.476563-4.6875-5.371094-5.996094-8.511719-.253906-.558594-.464844-1.152344-.648438-1.738281-.117187-.289063-.203124-.585938-.28125-.886719-.085937-.300781-.175781-.601563-.234374-.898438-.078126-.289062-.140626-.578125-.199219-.863281-.015625-.050781-.027344-.113281-.027344-.164062-.273437-1.449219-.410156-2.898438-.410156-4.324219 0-13.808594 12.335937-25.050781 27.5-25.050781zm266.25 539.976562c0 6.890625-5.613281 12.5-12.5 12.5h-387.5c-6.890625 0-12.5-5.609375-12.5-12.5v-483.039062c0-6.886719 5.609375-12.5 12.5-12.5h85.351562c2.707031 6.128906 6.722657 11.652343 11.59375 16.238281 9.902344 9.300781 22.980469 14.414062 36.804688 14.414062h120c19.863281 0 40.800781-11.679687 48.398437-30.652343h85.351563c6.886719 0 12.5 5.613281 12.5 12.5zm0 0"/><path d="m170.457031 338.167969h-52.082031c-6.902344 0-12.5-5.59375-12.5-12.5v-23.992188h-23.957031c-6.90625 0-12.5-5.597656-12.5-12.5v-52.136719c0-6.902343 5.59375-12.5 12.5-12.5h23.957031v-23.996093c0-6.90625 5.597656-12.5 12.5-12.5h52.082031c6.902344 0 12.5 5.59375 12.5 12.5v23.996093h23.960938c6.902343 0 12.5 5.597657 12.5 12.5v52.136719c0 6.902344-5.597657 12.5-12.5 12.5h-23.960938v23.992188c0 6.90625-5.597656 12.5-12.5 12.5zm-39.582031-25h27.082031v-23.992188c0-6.90625 5.601563-12.5 12.5-12.5h23.960938v-27.136719h-23.960938c-6.898437 0-12.5-5.597656-12.5-12.5v-23.996093h-27.082031v23.996093c0 6.902344-5.597656 12.5-12.5 12.5h-23.957031v27.136719h23.957031c6.902344 0 12.5 5.59375 12.5 12.5zm0 0"/><path d="m369.417969 413.246094h-237.5c-6.90625 0-12.5-5.59375-12.5-12.5 0-6.902344 5.59375-12.5 12.5-12.5h237.5c6.902343 0 12.5 5.597656 12.5 12.5 0 6.90625-5.597657 12.5-12.5 12.5zm0 0"/><path d="m81.941406 413.246094c-6.90625 0-12.503906-5.59375-12.503906-12.5 0-6.902344 5.589844-12.5 12.492188-12.5h.011718c6.902344 0 12.5 5.597656 12.5 12.5 0 6.90625-5.597656 12.5-12.5 12.5zm0 0"/><path d="m369.417969 488.324219h-287.5c-6.90625 0-12.5-5.59375-12.5-12.5 0-6.902344 5.59375-12.5 12.5-12.5h287.5c6.902343 0 12.5 5.597656 12.5 12.5 0 6.90625-5.597657 12.5-12.5 12.5zm0 0"/><path d="m369.417969 563.398438h-287.5c-6.90625 0-12.5-5.59375-12.5-12.5s5.59375-12.5 12.5-12.5h287.5c6.902343 0 12.5 5.59375 12.5 12.5s-5.597657 12.5-12.5 12.5zm0 0"/></svg>