<svg id="Capa_1" enable-background="new 0 0 512 512" height="512" viewBox="0 0 512 512" width="512" xmlns="http://www.w3.org/2000/svg"><g><path d="m467 0h-422c-24.813 0-45 20.187-45 45v422c0 24.813 20.187 45 45 45h422c24.813 0 45-20.187 45-45v-422c0-24.813-20.187-45-45-45zm15 467c0 8.271-6.729 15-15 15h-422c-8.271 0-15-6.729-15-15v-422c0-8.271 6.729-15 15-15h422c8.271 0 15 6.729 15 15z"/><path d="m406 211c8.284 0 15-6.716 15-15v-60c0-24.813-20.187-45-45-45h-105v-15c0-8.284-6.716-15-15-15s-15 6.716-15 15v15h-105c-24.813 0-45 20.187-45 45v60c0 8.284 6.716 15 15 15s15-6.716 15-15v-60c0-8.271 6.729-15 15-15h105v15c0 8.271-6.729 15-15 15h-60c-8.284 0-15 6.716-15 15s6.716 15 15 15h60c5.259 0 10.305-.915 15-2.58v17.58c0 8.271-6.729 15-15 15h-60c-8.284 0-15 6.716-15 15s6.716 15 15 15h60c5.259 0 10.305-.915 15-2.58v32.58h-30c-33.084 0-60 26.916-60 60 0 17.467 7.507 33.211 19.459 44.186l-18.69 56.071c-2.619 7.859 1.628 16.354 9.487 18.974 7.857 2.62 16.353-1.627 18.974-9.487l17.11-51.331c4.392 1.026 8.96 1.587 13.66 1.587 17.545 0 33.825-7.678 45-20.319 11.175 12.641 27.455 20.319 45 20.319 4.7 0 9.268-.561 13.66-1.587l17.11 51.331c2.62 7.859 11.114 12.107 18.974 9.487 7.859-2.62 12.106-11.115 9.487-18.974l-18.69-56.071c11.952-10.975 19.459-26.719 19.459-44.186 0-33.084-26.915-60-59.999-60h-30.001v-32.58c4.695 1.665 9.741 2.58 15 2.58h60c8.284 0 15-6.716 15-15s-6.716-15-15-15h-60c-8.271 0-15-6.729-15-15v-17.58c4.695 1.665 9.741 2.58 15 2.58h60c8.284 0 15-6.716 15-15s-6.716-15-15-15h-60c-8.271 0-15-6.729-15-15v-15h105c8.271 0 15 6.729 15 15v60c0 8.284 6.716 15 15 15zm-75 120c0 16.542-13.458 30-30 30-12.697 0-24.068-8.037-28.297-19.999-2.118-5.994-7.785-10.001-14.143-10.001h-5.121c-6.357 0-12.024 4.007-14.143 10.001-4.228 11.962-15.599 19.999-28.296 19.999-16.542 0-30-13.458-30-30s13.458-30 30-30h90.001c16.541 0 29.999 13.458 29.999 30z"/><path d="m112.708 242.583c-7.406-3.703-16.418-.702-20.124 6.708l-30 60c-3.705 7.41-.702 16.42 6.708 20.125 7.419 3.709 16.424.691 20.124-6.708l30-60c3.705-7.409.702-16.42-6.708-20.125z"/><path d="m419.416 249.292c-3.704-7.409-12.714-10.413-20.124-6.708s-10.413 12.715-6.708 20.125l30 60c3.698 7.397 12.702 10.419 20.124 6.708 7.41-3.705 10.413-12.715 6.708-20.125z"/></g></svg>