<svg id="Capa_1" enable-background="new 0 0 512 512" height="512" viewBox="0 0 512 512" width="512" xmlns="http://www.w3.org/2000/svg"><g><path d="m482.073 102.831c-.622-7.796-7.13-13.806-14.95-13.806-75.438 0-125.366-22.313-153.967-41.031-30.94-20.25-44.371-40.812-44.465-40.958-2.746-4.359-7.519-7.036-12.672-7.036s-9.926 2.616-12.672 6.977c-.132.205-13.563 20.767-44.503 41.017-28.601 18.718-78.529 41.031-153.967 41.031-7.82 0-14.328 6.009-14.95 13.806-.273 3.429-6.433 85.047 17.061 176.298 13.945 54.164 35.517 100.385 64.116 137.38 36.191 46.815 83.569 78.752 140.819 94.927 2.666.752 5.488.752 8.154 0 57.25-16.175 104.628-48.112 140.819-94.927 28.599-36.995 50.171-83.216 64.116-137.38 23.494-91.251 17.335-172.869 17.061-176.298zm-46.108 168.818c-12.924 50.194-32.706 92.759-58.799 126.511-31.312 40.504-72.059 68.486-121.166 83.219-48.977-14.693-89.639-42.567-120.916-82.896-26.086-33.636-45.888-76.058-58.857-126.09-16.969-65.462-17.681-127.16-16.998-153.624 75.945-2.706 127.363-26.56 157.683-46.76 17.877-11.909 30.681-23.934 39.088-33.094 8.407 9.161 21.211 21.185 39.088 33.095 30.321 20.201 81.74 44.057 157.693 46.761.694 26.322.008 87.532-16.816 152.878z"/><path d="m387.167 204.678c-3.169-7.653-11.943-11.285-19.595-8.118l-21.313 8.83c-9.154-15.434-21.881-27.851-36.656-36.605l8.845-21.353c3.17-7.653-.463-16.428-8.115-19.597-7.652-3.173-16.426.463-19.596 8.116l-8.846 21.355c-16.636-4.257-34.413-4.478-51.797-.039l-8.83-21.316c-3.17-7.653-11.942-11.288-19.596-8.116-7.652 3.17-11.285 11.945-8.115 19.597l8.826 21.308c-15.151 8.958-27.686 21.495-36.644 36.647l-21.306-8.827c-7.653-3.17-16.426.464-19.595 8.118-3.17 7.653.464 16.427 8.116 19.597l21.301 8.825c-4.379 17.048-4.379 34.781 0 51.829l-21.301 8.825c-7.652 3.171-11.286 11.945-8.116 19.597 2.393 5.777 7.976 9.263 13.862 9.263 1.912 0 3.857-.368 5.734-1.145l21.319-8.832c9.154 15.434 21.88 27.845 36.653 36.599l-8.849 21.361c-3.17 7.653.463 16.428 8.115 19.597 1.877.778 3.822 1.146 5.734 1.146 5.885 0 11.469-3.486 13.862-9.262l8.848-21.36c8.448 2.161 17.189 3.291 26.025 3.291 8.561-.001 17.214-1.061 25.77-3.246l8.83 21.315c2.393 5.776 7.976 9.262 13.861 9.262 1.912 0 3.858-.368 5.734-1.146 7.652-3.17 11.285-11.945 8.115-19.597l-8.827-21.308c15.151-8.958 27.686-21.495 36.644-36.647l21.306 8.827c1.877.777 3.821 1.145 5.734 1.145 5.885 0 11.469-3.487 13.861-9.263 3.17-7.653-.464-16.427-8.116-19.597l-21.301-8.825c4.379-17.048 4.379-34.781 0-51.829l21.301-8.825c7.654-3.17 11.287-11.944 8.118-19.597zm-200.447 83.037c-16.195-36.924 3.027-83.331 40.583-97.986 37.276-15.716 82.156 2.008 97.976 40.587 16.195 36.924-3.027 83.331-40.583 97.986-38.201 15.83-82.152-2.383-97.976-40.587z"/><circle cx="233.004" cy="240.016" r="14.998"/><circle cx="277.996" cy="279.014" r="14.998"/></g></svg>