
<svg version="1.1" xmlns="http://www.w3.org/2000/svg" xmlns:xlink="http://www.w3.org/1999/xlink" x="0px" y="0px"
	 viewBox="0 0 500 500" style="enable-background:new 0 0 500 500;" xml:space="preserve">

<symbol viewBox="0 0 500 500" id="figure">
	<path d="M430.3,393.1l-30.5-147.8c-4-13.4-15.4-35.6-47.5-35.6H149.7c-25,0-42.3,21.8-47.6,35.8L71.6,393.1l-9.8-2l30.6-148.3
		l0.1-0.3c6.2-17.2,26.6-42.7,57.1-42.7h202.6c40.2,0,53.4,30.1,57.2,43l0.1,0.4l30.6,148L430.3,393.1z"/>
	<polygon points="169.9,457.8 159.9,457.8 159.9,337.2 134.6,438.3 124.9,435.9 160.9,291.9 169.8,291.9 169.9,296.9 	"/>
	<polygon points="342.1,457.8 332.1,457.8 332.1,291.9 341,291.9 342,295.7 377,435.9 367.3,438.3 342.1,337.2 	"/>
	<path d="M251.3,172.5c-41.7,0-75.6-33.9-75.6-75.6s33.9-75.6,75.6-75.6s75.6,33.9,75.6,75.6S293,172.5,251.3,172.5z M251.3,31.3
		c-36.2,0-65.6,29.4-65.6,65.6s29.4,65.6,65.6,65.6c36.2,0,65.6-29.4,65.6-65.6S287.5,31.3,251.3,31.3z"/>
</symbol>
<symbol viewBox="0 0 500 500" id="skeleton">
	<polygon points="337.1,256.6 337.1,246.6 255,246.6 255,224.6 245,224.6 245,246.6 164.9,246.6 164.9,256.6 245,256.6 245,276.6 
		190,276.6 190,286.6 245,286.6 245,306.6 212.7,306.6 212.7,316.6 245,316.6 245,336.6 212.7,336.6 212.7,346.6 245,346.6 
		245,449.9 255,449.9 255,346.6 289.2,346.6 289.2,336.6 255,336.6 255,316.6 289.2,316.6 289.2,306.6 255,306.6 255,286.6 
		312,286.6 312,276.6 255,276.6 255,256.6 	"/>
</symbol>
<symbol viewBox="0 0 500 500" id="muscular">
	<path d="M337.4,343.1v-4.9H255v-72.9h-10v72.9h-79.8v5l-4.5,2.2l42.5,86.4l9-4.4l-6.5-13.2h91.6l-6.5,13.2l9,4.4l42.5-86.4
		L337.4,343.1z M200.8,404.2l-27.5-56h156.4l-27.5,56H200.8z"/>
</symbol>
<symbol viewBox="0 0 500 500" id="vascular">
	<path d="M280.8,339.6c-0.3,0-0.6-0.1-0.9-0.2c-0.3-0.2-7.7-4.5-15.3-11c-4.5-3.9-8-7.7-10.6-11.4c-3.3-4.8-5-9.4-5-13.6
		c0-5,1.8-9.7,5-13.2c3.3-3.6,7.6-5.6,12.3-5.6c5.9,0,11.4,3.3,14.5,8.6c3.1-5.3,8.6-8.6,14.5-8.6c4.4,0,8.6,1.8,11.8,5
		c3.5,3.5,5.5,8.6,5.5,13.7c0,4.3-1.7,8.9-5.1,13.6c-2.6,3.7-6.1,7.5-10.6,11.4c-7.5,6.5-14.9,10.8-15.2,11
		C281.4,339.5,281.1,339.6,280.8,339.6L280.8,339.6z"/>
	<rect x="275.3" y="331.9" width="11" height="68.1"/>
		<path d="M300.9,430h-42.2c-2,0-3,2.4-1.6,3.8l21.1,21.1c0.9,0.9,2.3,0.9,3.2,0l21.1-21.1C303.9,432.4,302.9,430,300.9,430z"/>
		<path d="M300.9,400h-42.2c-2,0-3,2.4-1.6,3.8l21.1,21.1c0.9,0.9,2.3,0.9,3.2,0l21.1-21.1C303.9,402.4,302.9,400,300.9,400z"/>
</symbol>
<symbol viewBox="0 0 500 500" id="venous">
	<path d="M280.8,339.6c-0.3,0-0.6-0.1-0.9-0.2c-0.3-0.2-7.7-4.5-15.3-11c-4.5-3.9-8-7.7-10.6-11.4c-3.3-4.8-5-9.4-5-13.6
		c0-5,1.8-9.7,5-13.2c3.3-3.6,7.6-5.6,12.3-5.6c5.9,0,11.4,3.3,14.5,8.6c3.1-5.3,8.6-8.6,14.5-8.6c4.4,0,8.6,1.8,11.8,5
		c3.5,3.5,5.5,8.6,5.5,13.7c0,4.3-1.7,8.9-5.1,13.6c-2.6,3.7-6.1,7.5-10.6,11.4c-7.5,6.5-14.9,10.8-15.2,11
		C281.4,339.5,281.1,339.6,280.8,339.6L280.8,339.6z"/>
	<rect x="275.6" y="318.9" transform="matrix(1 -6.067968e-03 6.067968e-03 1 -2.2323 1.7123)" width="11" height="99.8"/>
		<path d="M260.7,456.6h42.2c2,0,3-2.4,1.6-3.8l-21.1-21.1c-0.9-0.9-2.3-0.9-3.2,0l-21.1,21.1C257.7,454.2,258.7,456.6,260.7,456.6z
			"/>
		<path d="M260.7,422.6h42.2c2,0,3-2.4,1.6-3.8l-21.1-21.1c-0.9-0.9-2.3-0.9-3.2,0l-21.1,21.1C257.7,420.2,258.7,422.6,260.7,422.6z
			"/>

</symbol>
<symbol viewBox="0 0 500 500" id="lymphatic">
	<polygon points="254.8,225.3 247.4,225.3 181.8,419.5 193.8,439.5 202.4,434.4 192.7,418.3 199.1,399.5 209,416.3 217.6,411.3 
		203.3,387 210,367 221.2,386.5 229.9,381.5 214.3,354.4 221.4,333.6 232.2,352.5 240.9,347.5 225.6,320.9 251.1,245.5 276.6,320.9 
		261.4,347.5 270.1,352.5 280.9,333.6 287.5,353.3 271.4,381.5 280.1,386.5 291.8,365.9 298.9,387 284.6,411.3 293.2,416.3 
		303.2,399.5 309.5,418.3 299.9,434.4 308.4,439.5 320.5,419.5 	"/>
</symbol>
<symbol viewBox="0 0 500 500" id="nervous">
	<path d="M226.8,314.4l-7.6-6.5c7.5-8.8,19.4-14.1,32-14.1c12.4,0,23.9,4.9,31.5,13.5l-7.5,6.6c-5.6-6.3-14.6-10.1-24-10.1
		C241.5,303.9,232.3,307.8,226.8,314.4z"/>
	<path d="M226.8,354.4l-7.6-6.5c7.5-8.8,19.4-14.1,32-14.1c12.4,0,23.9,4.9,31.5,13.5l-7.5,6.6c-5.6-6.3-14.6-10.1-24-10.1
		C241.5,343.9,232.3,347.8,226.8,354.4z"/>
	<path d="M226.8,394.4l-7.6-6.5c7.5-8.8,19.4-14.1,32-14.1c12.4,0,23.9,4.9,31.5,13.5l-7.5,6.6c-5.6-6.3-14.6-10.1-24-10.1
		C241.5,383.9,232.3,387.8,226.8,394.4z"/>
	<path d="M226.8,434.4l-7.6-6.5c7.5-8.8,19.4-14.1,32-14.1c12.4,0,23.9,4.9,31.5,13.5l-7.5,6.6c-5.6-6.3-14.6-10.1-24-10.1
		C241.5,423.9,232.3,427.8,226.8,434.4z"/>
	<path d="M256.1,254.2l0.3-208.8l-10,0l-0.3,208.8c-10.7,1.2-20.5,6.2-27,13.8l7.6,6.5c5.6-6.6,14.7-10.5,24.3-10.5
		c9.4,0,18.4,3.8,24,10.1l7.5-6.6C276,260,266.6,255.3,256.1,254.2z"/>
	<path d="M267.3,127.8l7.4,0c6.8,0,12.3-5.5,12.3-12.3c0-0.9-0.1-1.8-0.3-2.6c6.7-2.1,11.3-8.4,11.3-15.4c0-2.6-0.7-5.2-1.9-7.5
		c2.7-2.7,4.4-6.4,4.4-10.5c0-6.7-4.5-12.4-10.6-14.2c0.2-0.8,0.3-1.7,0.3-2.6c0-5.7-4.6-10.3-10.3-10.3c-0.6,0-1.3,0.1-1.9,0.2
		c-0.2-4.1-3.6-7.3-7.7-7.3c-4.2,0-7.7,3.4-7.7,7.7c0,0,0,0,0,0v70.1C262.5,125.6,264.7,127.8,267.3,127.8z"/>
	<path d="M203.6,79.5c0,4.1,1.7,7.8,4.4,10.5c-1.2,2.3-1.9,4.9-1.9,7.5c0,7.1,4.6,13.3,11.3,15.4c-0.2,0.9-0.3,1.8-0.3,2.6
		c0,6.8,5.5,12.3,12.3,12.3l7.4,0c2.7,0,4.8-2.2,4.8-4.8V66.8c0-0.1,0-0.1,0-0.2c0-0.3,0-0.5,0-0.7V53.1V53v-0.1h0
		c-0.1-4.5-3.5-7.6-7.7-7.6c-4.1,0-7.5,3.2-7.7,7.3c-0.7-0.1-1.3-0.2-1.9-0.2c-5.7,0-10.3,4.6-10.3,10.3c0,0.9,0.1,1.7,0.3,2.6
		C208.1,67.1,203.6,72.8,203.6,79.5z"/>
</symbol>
<symbol viewBox="0 0 500 500" id="respiratory">
	<path d="M317,341c0-31.3-15.8-81.1-34.6-81.1c-13.1,0-16.4,15.7-17.1,30.4c-6.9-0.2-7.2-2.7-7.2-7.3v-26.3c0-3.4-2.7-6.1-6.1-6.1
		c-3.4,0-6.1,2.7-6.1,6.1v26.3c0,4.6-0.4,7.1-7.2,7.3c-0.7-14.7-3.9-30.4-17.1-30.4c-18.8,0-34.6,49.8-34.6,81.1
		c0,1-0.1,24.3,6.3,30.7c1.2,1.2,2.5,1.8,3.9,1.8c3.8,0,5.7-1.5,8.4-3.5c3.3-2.5,7.9-6,19.4-9.3c19.5-5.6,17.5-23.9,15.3-43.2
		c-0.5-4.9-1.1-10-1.3-14.9c5.5-0.2,9.9-1.5,13-4.1c3.2,2.6,7.5,3.9,13,4.1c-0.2,5-0.8,10-1.3,14.9c-2.2,19.3-4.2,37.6,15.3,43.2
		c11.5,3.3,16.1,6.8,19.4,9.3c2.6,2,4.5,3.5,8.4,3.5c1.5,0,2.8-0.6,3.9-1.8C317.1,365.2,317,341.9,317,341z"/>
</symbol>
<symbol viewBox="0 0 500 500" id="digestive">
	<path d="M312.5,377.5c0,9.8-7.9,17.7-17.7,17.7h-83.5c-0.8,0-1.4,0.7-1.4,1.5c0,0.8,0.6,1.4,1.4,1.4h61.3c9.4,0,17,7.6,16.9,17
		c0,9.4-7.6,16.9-16.9,16.9h-40.7c-0.8,0-1.4,0.6-1.4,1.4c0,0.8,0.6,1.4,1.4,1.4h8.5c10.8,0,19.6,8.8,19.6,19.6v10.2
		c0,3.7-3.1,6.7-6.8,6.6c-3.6,0-6.6-3-6.6-6.6v-6.5c0-3.8-3.1-6.9-6.9-6.9h-5.6c-9.5,0-17.2-7.7-17.2-17.2c0-9.5,7.7-17.2,17.2-17.2
		h39.2c0.8,0,1.4-0.7,1.4-1.5c0-0.8-0.6-1.4-1.4-1.4h-68.2c-22.9-0.8-22.9-33.8,0-34.6h85.8c0.8,0,1.4-0.7,1.4-1.4
		c0-0.8-0.6-1.4-1.4-1.4h-57c-23.6-0.8-23.6-34.8,0-35.7h35.2c3.6,0,6.5-2.9,6.5-6.5c0,0,0,0,0,0v-6.8c0-3.8,3.1-6.9,6.9-6.9
		c3.8,0,6.9,3.1,6.9,6.9v11.1c0,10.1-8.2,18.3-18.3,18.3h-31.5c-0.8,0-1.4,0.7-1.4,1.5c0,0.8,0.6,1.4,1.4,1.4h55.1
		C304.5,359.8,312.5,367.7,312.5,377.5L312.5,377.5z"/>
</symbol>
<symbol viewBox="0 0 500 500" id="urogenital">
	<path d="M274.9,379.3c0,5.8,6.7,10.5,14.9,10.5c16.5,0,29.9-15,29.9-33.6c0-18.6-13.4-33.6-29.9-33.6c-8.2,0-14.9,4.7-14.9,10.5
		c0,2.2,0.5,4.4,1.5,6.3c2,4,3.2,8.2,3.7,12.6h-5.2c-9.2,0-16.8,7.6-16.8,16.8V390c-1.8-0.2-3.7-0.3-5.6-0.3c-1.9,0-3.8,0.1-5.6,0.3
		v-21.3c0-9.2-7.6-16.8-16.8-16.8h-5.2c0.5-4.4,1.7-8.6,3.7-12.6c1-1.9,1.5-4.1,1.5-6.3c0-5.8-6.7-10.5-14.9-10.5
		c-16.5,0-29.9,15-29.9,33.6c0,18.6,13.4,33.6,29.9,33.6c8.2,0,14.9-4.7,14.9-10.5c0-2.2-0.5-4.4-1.5-6.3c-2-4.1-3.2-8.4-3.7-12.6
		h5.2c4.6,0,8.4,3.8,8.4,8.4v22.7c-14.7,3.6-25.2,12.8-25.2,23.5c0,7,4.4,13.3,11.5,17.8l17.4,11.2c2.6,1.7,4.7,5.3,4.7,8
		c0,2.7,0,5,0,5h11.2c0,0,0-2.2,0-5s2.1-6.3,4.7-8l17.4-11.2c7.1-4.5,11.5-10.8,11.5-17.8c0-10.7-10.5-19.9-25.2-23.5v-22.7
		c0-4.6,3.8-8.4,8.4-8.4h5.2c-0.5,4.2-1.7,8.5-3.7,12.6C275.4,374.9,274.9,377,274.9,379.3L274.9,379.3z"/>
</symbol>

<symbol viewBox="0 0 500 500" id="organs">
<use href="#digestive" />
</symbol>

<symbol viewBox="0 0 500 500" id="skin">
<use href="#figure" />
</symbol>

</svg>
