<?xml version="1.0" encoding="UTF-8"?><!DOCTYPE svg PUBLIC "-//W3C//DTD SVG 1.1//EN" "http://www.w3.org/Graphics/SVG/1.1/DTD/svg11.dtd"><svg xmlns="http://www.w3.org/2000/svg" xmlns:xlink="http://www.w3.org/1999/xlink"><defs><clipPath clipPathUnits="userSpaceOnUse" id="clipPath821"><path d="M 0,512 H 512 V 0 H 0 Z" id="path819"/></clipPath></defs><symbol id="calendar" viewBox="0 0 512 512"><g><path d="m144 249h-32c-8.284 0-15 6.716-15 15s6.716 15 15 15h32c8.284 0 15-6.716 15-15s-6.716-15-15-15z"/><path d="m144 313h-32c-8.284 0-15 6.716-15 15s6.716 15 15 15h32c8.284 0 15-6.716 15-15s-6.716-15-15-15z"/><path d="m144 377h-32c-8.284 0-15 6.716-15 15s6.716 15 15 15h32c8.284 0 15-6.716 15-15s-6.716-15-15-15z"/><path d="m272 249h-32c-8.284 0-15 6.716-15 15s6.716 15 15 15h32c8.284 0 15-6.716 15-15s-6.716-15-15-15z"/><path d="m272 313h-32c-8.284 0-15 6.716-15 15s6.716 15 15 15h32c8.284 0 15-6.716 15-15s-6.716-15-15-15z"/><path d="m272 377h-32c-8.284 0-15 6.716-15 15s6.716 15 15 15h32c8.284 0 15-6.716 15-15s-6.716-15-15-15z"/><path d="m400 249h-32c-8.284 0-15 6.716-15 15s6.716 15 15 15h32c8.284 0 15-6.716 15-15s-6.716-15-15-15z"/><path d="m400 313h-32c-8.284 0-15 6.716-15 15s6.716 15 15 15h32c8.284 0 15-6.716 15-15s-6.716-15-15-15z"/><path d="m400 377h-32c-8.284 0-15 6.716-15 15s6.716 15 15 15h32c8.284 0 15-6.716 15-15s-6.716-15-15-15z"/><path d="m467 65h-36v-25c0-8.284-6.716-15-15-15s-15 6.716-15 15v25h-130v-25c0-8.284-6.716-15-15-15s-15 6.716-15 15v25h-130v-25c0-8.284-6.716-15-15-15s-15 6.716-15 15v25h-36c-24.813 0-45 20.187-45 45v332c0 24.813 20.187 45 45 45h422c24.813 0 45-20.187 45-45 0-9.682 0-323.575 0-332 0-24.813-20.187-45-45-45zm-437 45c0-8.271 6.729-15 15-15h36v25c0 8.284 6.716 15 15 15s15-6.716 15-15v-25h130v25c0 8.284 6.716 15 15 15s15-6.716 15-15v-25h130v25c0 8.284 6.716 15 15 15s15-6.716 15-15v-25h36c8.271 0 15 6.729 15 15v59h-452zm437 347h-422c-8.271 0-15-6.729-15-15v-243h452v243c0 8.271-6.729 15-15 15z"/></g></symbol><symbol id="checked" viewBox="0 0 252 252">
<g>
	<path d="M180.636,74.573l-83.764,83.763l-25.509-25.508c-3.515-3.515-9.213-3.515-12.728,0c-3.515,3.515-3.515,9.213,0,12.728
		l31.873,31.873c1.757,1.758,4.06,2.636,6.364,2.636c2.303,0,4.607-0.879,6.364-2.636L193.364,87.3
		c3.515-3.515,3.515-9.213,0-12.728C189.85,71.058,184.15,71.058,180.636,74.573z"/>
	<path d="M126,0C56.523,0,0,56.523,0,126s56.523,126,126,126s126-56.523,126-126S195.477,0,126,0z M126,234
		c-59.551,0-108-48.449-108-108S66.449,18,126,18s108,48.449,108,108S185.551,234,126,234z"/>
</g>
</symbol><symbol id="diagnosis" viewBox="0 0 682.66669 682.66669"><g id="g813" transform="matrix(1.3333333,0,0,-1.3333333,0,682.66667)"><g id="g815"><g id="g817" clip-path="url(#clipPath821)"><g id="g823" transform="translate(376,464)"><path d="M 0,0 H 50.29 C 57.83,0 64,-6.17 64,-13.72 V -435.29 C 64,-442.83 57.83,-449 50.29,-449 h -340.58 c -7.54,0 -13.71,6.17 -13.71,13.71 v 421.57 c 0,7.55 6.17,13.72 13.71,13.72 L -240,0" style="fill:none;stroke: currentColor;stroke-width:30;stroke-linecap:round;stroke-linejoin:round;stroke-miterlimit:10;stroke-dasharray:none;stroke-opacity:1" id="path825"/></g><g id="g827" transform="translate(365.209,432)"><path d="m 0,0 h -218.418 c -5.936,0 -10.791,4.856 -10.791,10.791 v 43.418 c 0,5.935 4.855,10.791 10.791,10.791 H 0 C 5.936,65 10.791,60.144 10.791,54.209 V 10.791 C 10.791,4.856 5.936,0 0,0 Z" style="fill:none;stroke: currentColor;stroke-width:30;stroke-linecap:round;stroke-linejoin:round;stroke-miterlimit:10;stroke-dasharray:none;stroke-opacity:1" id="path829"/></g><g id="g831" transform="translate(312,304)"><path d="M 0,0 H -112" style="fill:none;stroke: currentColor;stroke-width:30;stroke-linecap:round;stroke-linejoin:round;stroke-miterlimit:10;stroke-dasharray:none;stroke-opacity:1" id="path833"/></g><g id="g835" transform="translate(256,360)"><path d="M 0,0 V -112" style="fill:none;stroke: currentColor;stroke-width:30;stroke-linecap:round;stroke-linejoin:round;stroke-miterlimit:10;stroke-dasharray:none;stroke-opacity:1" id="path837"/></g><g id="g839" transform="translate(136,184)"><path d="M 0,0 H 32" style="fill:none;stroke: currentColor;stroke-width:30;stroke-linecap:round;stroke-linejoin:round;stroke-miterlimit:10;stroke-dasharray:none;stroke-opacity:1" id="path841"/></g><g id="g843" transform="translate(136,120)"><path d="M 0,0 H 32" style="fill:none;stroke: currentColor;stroke-width:30;stroke-linecap:round;stroke-linejoin:round;stroke-miterlimit:10;stroke-dasharray:none;stroke-opacity:1" id="path845"/></g><g id="g847" transform="translate(240,184)"><path d="M 0,0 H 136" style="fill:none;stroke: currentColor;stroke-width:30;stroke-linecap:round;stroke-linejoin:round;stroke-miterlimit:10;stroke-dasharray:none;stroke-opacity:1" id="path849"/></g><g id="g851" transform="translate(240,120)"><path d="M 0,0 H 136" style="fill:none;stroke: currentColor;stroke-width:30;stroke-linecap:round;stroke-linejoin:round;stroke-miterlimit:10;stroke-dasharray:none;stroke-opacity:1" id="path853"/></g></g></g></g></symbol><symbol id="encrypt" viewBox="0 0 512 512"><g><path d="m446.519 305.306c-2.806-2.76-6.583-4.306-10.519-4.306h-173.153c-18.91-53.535-69.509-90-126.847-90-74.99 0-136 60.561-136 135s61.01 135 136 135c24.022 0 47.595-6.472 68.169-18.716 17.303-10.297 32.198-24.464 43.486-41.284h32.132l25.606 25.606c5.857 5.858 15.355 5.858 21.213 0l19.394-19.393 19.394 19.393c5.857 5.858 15.355 5.858 21.213 0l19.393-19.393 19.394 19.393c5.825 5.826 15.255 5.863 21.125.087l61-60c2.867-2.82 4.481-6.673 4.481-10.694s-1.614-7.874-4.481-10.694zm-10.432 109.568-19.48-19.48c-5.857-5.858-15.355-5.858-21.213 0l-19.394 19.393-19.394-19.393c-5.857-5.858-15.355-5.858-21.213 0l-19.393 19.393-19.394-19.393c-2.812-2.813-6.627-4.394-10.606-4.394h-46.645c-5.341 0-10.278 2.839-12.965 7.455-19.147 32.902-52.938 52.545-90.39 52.545-58.448 0-106-47.103-106-105s47.552-105 106-105c47.596 0 89.227 32.388 101.237 78.761 1.714 6.618 7.685 11.239 14.521 11.239h178.102l45.75 45z"/><path d="m106 301c-24.813 0-45 20.187-45 45s20.187 45 45 45 45-20.187 45-45-20.187-45-45-45zm0 60c-8.271 0-15-6.729-15-15s6.729-15 15-15 15 6.729 15 15-6.729 15-15 15z"/><path d="m151 136v-60c0-24.813-20.187-45-45-45s-45 20.187-45 45v60c0 24.813 20.187 45 45 45s45-20.187 45-45zm-60 0v-60c0-8.271 6.729-15 15-15s15 6.729 15 15v60c0 8.271-6.729 15-15 15s-15-6.729-15-15z"/><path d="m15 181c8.284 0 15-6.716 15-15v-120c0-8.284-6.716-15-15-15s-15 6.716-15 15v120c0 8.284 6.716 15 15 15z"/><path d="m391 136v-60c0-24.813-20.187-45-45-45s-45 20.187-45 45v60c0 24.813 20.187 45 45 45s45-20.187 45-45zm-60 0v-60c0-8.271 6.729-15 15-15s15 6.729 15 15v60c0 8.271-6.729 15-15 15s-15-6.729-15-15z"/><path d="m211 166v-120c0-8.284-6.716-15-15-15s-15 6.716-15 15v120c0 8.284 6.716 15 15 15s15-6.716 15-15z"/><path d="m271 166v-120c0-8.284-6.716-15-15-15s-15 6.716-15 15v120c0 8.284 6.716 15 15 15s15-6.716 15-15z"/><path d="m451 166v-120c0-8.284-6.716-15-15-15s-15 6.716-15 15v120c0 8.284 6.716 15 15 15s15-6.716 15-15z"/><path d="m497 31c-8.284 0-15 6.716-15 15v120c0 8.284 6.716 15 15 15s15-6.716 15-15v-120c0-8.284-6.716-15-15-15z"/></g></symbol><symbol id="model-gp" viewBox="0 0 512 512"><g><path d="m408 273c-20.671 0-38.255 13.42-44.531 32h-11.469c-34.738 0-63 28.262-63 63v81c0 18.196-14.804 33-33 33h-24c-18.196 0-33-14.804-33-33v-138.523c22.607-3.391 40-22.939 40-46.477v-16.079c42.022-15.822 72-56.433 72-103.921v-81c0-25.916-21.084-47-47-47h-17v-1c0-8.284-6.716-15-15-15s-15 6.716-15 15v32c0 8.284 6.716 15 15 15s15-6.716 15-15v-1h17c9.374 0 17 7.626 17 17v81c0 44.663-36.337 81-81 81h-32c-44.663 0-81-36.337-81-81v-81c0-9.374 7.626-17 17-17h17v1c0 8.284 6.716 15 15 15s15-6.716 15-15v-32c0-8.284-6.716-15-15-15s-15 6.716-15 15v1h-17c-25.916 0-47 21.084-47 47v81c0 47.488 29.978 88.099 72 103.921v16.079c0 23.538 17.393 43.085 40 46.477v138.523c0 34.738 28.262 63 63 63h24c34.738 0 63-28.262 63-63v-81c0-18.196 14.804-33 33-33h11.469c6.276 18.58 23.86 32 44.531 32 25.916 0 47-21.084 47-47s-21.084-47-47-47zm-249-9v-9.366c2.969.239 5.97.366 9 .366h32c3.03 0 6.031-.127 9-.366v9.366c0 9.374-7.626 17-17 17h-16c-9.374 0-17-7.626-17-17zm249 73c-9.374 0-17-7.626-17-17s7.626-17 17-17 17 7.626 17 17-7.626 17-17 17z"/></g></symbol><symbol id="model-pt" viewBox="0 0 512 512"><g><path d="m512 371c0-24.813-20.187-45-45-45h-26.19c1.665-4.695 2.58-9.741 2.58-15v-48.664l4.105-2.37c21.488-12.406 28.877-39.982 16.471-61.471-7.793-13.499-21.572-21.429-36.067-22.388-8.324-13.557-19.633-25.096-33.145-33.708-11.143-7.102-23.455-11.973-36.316-14.464 10.349-12.86 16.562-29.181 16.562-46.935 0-41.355-33.645-75-75-75s-75 33.645-75 75c0 17.519 6.054 33.642 16.159 46.422-49.728 8.245-87.769 51.549-87.769 103.578v40c0 9.005 2.189 17.504 6.043 25.014-16.164.151-30.818 6.722-41.532 17.287-11.8-16.509-31.108-27.301-52.901-27.301-35.841 0-65 29.159-65 65 0 18.605 7.87 35.397 20.44 47.257-12.457 10.091-20.44 25.499-20.44 42.743v50c0 8.284 6.716 15 15 15h482c8.284 0 15-6.716 15-15v-50c0-14.261-5.458-27.27-14.392-37.053 8.844-8.223 14.392-19.947 14.392-32.947zm-98.61-60c0 8.271-6.729 15-15 15s-15-6.729-15-15c0-.013-.002-.026-.002-.039v-13.983l30.002-17.322zm-113.39-275c24.813 0 45 20.187 45 45s-20.187 45-45 45-45-20.187-45-45 20.187-45 45-45zm-116.61 195c0-41.355 33.645-75 75-75h80c23.597 0 45.152 10.769 59.179 28.869l-81.676 47.156c-5.067 2.925-9.419 6.8-12.912 11.319-7.075-4.636-15.521-7.343-24.593-7.343h-34.998v-15c0-8.284-6.716-15-15-15s-15 6.716-15 15v30c0 8.284 6.716 15 15 15h49.998c8.271 0 15 6.729 15 15s-6.729 15-15 15h-69.998c-13.785 0-25-11.215-25-25zm-23.39 95h148.388c8.284 0 15-6.716 15-15 0 0 .128-39.321.129-39.986.005-5.482 2.763-10.345 7.376-13.009l86.603-50c7.163-4.137 16.354-1.674 20.49 5.49 4.136 7.163 1.673 16.354-5.49 20.49l-71.607 41.343c-4.641 2.68-7.5 7.631-7.5 12.99v52.682c0 8.284 6.716 15 15 15h98.611c8.271 0 15 6.729 15 15s-6.729 15-15 15h-307c-16.542 0-30-13.458-30-30s13.458-30 30-30zm-95-10c19.299 0 35 15.701 35 35s-15.701 35-35 35-35-15.701-35-35 15.701-35 35-35zm417 160h-452v-35c0-13.785 11.215-25 25-25h402c13.785 0 25 11.215 25 25z"/></g></symbol><symbol id="model-voice" viewBox="0 0 512.006 512.006"><path d="m143.971 431.294c-3.839 0-7.678-1.465-10.606-4.394-51.508-51.508-51.508-135.316 0-186.824 5.857-5.857 15.355-5.857 21.213 0s5.858 15.355 0 21.213c-39.811 39.811-39.811 104.588 0 144.398 5.858 5.857 5.858 15.355 0 21.213-2.929 2.929-6.768 4.394-10.607 4.394z"/><path d="m200.242 385.023c-3.839 0-7.678-1.465-10.606-4.394-25.994-25.994-25.994-68.289 0-94.283 5.857-5.857 15.355-5.857 21.213 0s5.858 15.355 0 21.213c-14.297 14.297-14.297 37.561 0 51.857 5.858 5.857 5.858 15.355 0 21.213-2.93 2.93-6.768 4.394-10.607 4.394z"/><path d="m87.549 476.305c-3.839 0-7.678-1.465-10.606-4.394-76.326-76.326-76.326-200.519 0-276.846 5.858-5.857 15.356-5.857 21.213 0 5.858 5.857 5.858 15.355 0 21.213-64.629 64.63-64.629 169.791 0 234.42 5.858 5.857 5.858 15.355 0 21.213-2.929 2.929-6.768 4.394-10.607 4.394z"/><path d="m477.313 512.006c-5.715 0-11.174-3.283-13.679-8.83l-20.224-44.781c-3.138-6.948-10.117-11.361-17.71-11.219-26.632.465-59.341.957-76.033.627-17.957-.355-28.423-7.979-34.041-14.312-7.784-8.773-11.355-20.76-10.056-33.75.752-7.528-1.282-10.093-5.333-15.2-3.064-3.863-6.878-8.67-8.718-15.516-2.792-10.393 1.287-21.721 10.391-28.859.407-.318.831-.617 1.269-.893l30.14-18.959-45.046-17.09c-.384-.146-.762-.308-1.133-.484-10.76-5.128-16.716-16.888-14.485-28.596l5.827-30.589c.594-3.118-.092-6.26-1.933-8.847-1.84-2.588-4.583-4.267-7.725-4.729l-29.654-4.359c-8.207-1.208-15.242-6.396-18.82-13.877-3.578-7.48-3.201-16.213 1.008-23.357l56.521-95.938c8.598-14.593 11.99-31.86 9.552-48.621l-3.879-26.666c-1.192-8.198 4.486-15.811 12.685-17.003s15.811 4.487 17.003 12.685l3.879 26.666c3.418 23.5-1.338 47.709-13.392 68.168l-52.652 89.371 22.114 3.251c11.308 1.664 21.183 7.709 27.807 17.021s9.094 20.623 6.956 31.849l-5.229 27.451 50.626 19.207c8.926 3.386 15.061 11.391 16.008 20.892.948 9.501-3.483 18.561-11.565 23.645l-36.186 22.762c.631.876 1.428 1.881 2.134 2.771 5.104 6.433 13.645 17.199 11.682 36.829-.265 2.643-.272 7.567 2.646 10.856 2.974 3.353 8.272 4.148 12.192 4.227 16.193.319 48.543-.167 74.915-.629 19.611-.306 37.501 10.988 45.576 28.867l20.224 44.781c3.41 7.55.053 16.435-7.497 19.845-2.003.904-4.101 1.333-6.165 1.333zm-134.605-188.13h.01z"/></symbol><symbol id="prop-age" viewBox="0 0 512 512"><path d="m186 451h140c8.284 0 15-6.716 15-15v-20c0-31.171-16.877-58.461-41.962-73.255 10.487-10.809 16.962-25.531 16.962-41.745 0-33.084-26.916-60-60-60s-60 26.916-60 60c0 16.214 6.475 30.936 16.963 41.745-25.086 14.794-41.963 42.084-41.963 73.255v20c0 8.284 6.716 15 15 15zm40-150c0-16.542 13.458-30 30-30s30 13.458 30 30-13.458 30-30 30-30-13.458-30-30zm-25 115c0-30.327 24.673-55 55-55s55 24.673 55 55v5h-110z"/><path d="m457 60h-2.198c-2.181-13.603-7.308-26.194-14.983-36.426-11.235-14.982-27.207-23.574-43.819-23.574s-32.584 8.592-43.819 23.574c-7.675 10.232-12.803 22.823-14.983 36.426h-22.395c-2.181-13.603-7.308-26.194-14.983-36.426-11.236-14.982-27.208-23.574-43.82-23.574s-32.584 8.592-43.819 23.574c-7.675 10.232-12.802 22.823-14.983 36.426h-22.395c-2.181-13.603-7.308-26.194-14.983-36.426-11.236-14.982-27.208-23.574-43.82-23.574s-32.584 8.592-43.819 23.574c-7.675 10.232-12.802 22.823-14.983 36.426h-2.198c-30.327 0-55 24.673-55 55v342c0 30.327 24.673 55 55 55h402c30.327 0 55-24.673 55-55v-342c0-30.327-24.673-55-55-55zm-61-30c12.775 0 23.989 12.72 28.212 30h-56.423c4.222-17.28 15.436-30 28.211-30zm-140 0c12.775 0 23.989 12.72 28.212 30h-56.423c4.222-17.28 15.436-30 28.211-30zm-140 0c12.775 0 23.989 12.72 28.212 30h-56.424c4.223-17.28 15.437-30 28.212-30zm-86 85c0-13.785 11.215-25 25-25h2.198c2.181 13.603 7.308 26.194 14.983 36.426 11.235 14.982 27.207 23.574 43.819 23.574 8.284 0 15-6.716 15-15s-6.716-15-15-15c-12.775 0-23.989-12.72-28.212-30h109.409c2.181 13.603 7.308 26.194 14.983 36.426 11.236 14.982 27.208 23.574 43.82 23.574 8.284 0 15-6.716 15-15s-6.716-15-15-15c-12.775 0-23.989-12.72-28.212-30h109.409c2.181 13.603 7.308 26.194 14.983 36.426 11.236 14.982 27.208 23.574 43.82 23.574 8.284 0 15-6.716 15-15s-6.716-15-15-15c-12.775 0-23.989-12.72-28.212-30h89.212c13.785 0 25 11.215 25 25v65h-452zm452 342c0 13.785-11.215 25-25 25h-402c-13.785 0-25-11.215-25-25v-247h452z"/></symbol><symbol id="prop-biologicalSex-female" viewBox="0 0 226.661 226.661">
<path d="M191.384,78.055C191.384,35.015,156.372,0,113.336,0C70.294,0,35.277,35.015,35.277,78.055
	c0,40.506,31.023,73.895,70.559,77.682v20.648H78.052c-4.142,0-7.5,3.358-7.5,7.5c0,4.142,3.358,7.5,7.5,7.5h27.783v27.776
	c0,4.142,3.358,7.5,7.5,7.5c4.142,0,7.5-3.358,7.5-7.5v-27.776h27.773c4.142,0,7.5-3.358,7.5-7.5c0-4.142-3.358-7.5-7.5-7.5h-27.773
	v-20.648C160.365,151.949,191.384,118.561,191.384,78.055z M50.277,78.055C50.277,43.286,78.565,15,113.336,15
	c34.765,0,63.049,28.286,63.049,63.055c0,34.766-28.284,63.05-63.049,63.05C78.565,141.105,50.277,112.82,50.277,78.055z"/>
<g>
</g>
<g>
</g>
<g>
</g>
<g>
</g>
<g>
</g>
<g>
</g>
<g>
</g>
<g>
</g>
<g>
</g>
<g>
</g>
<g>
</g>
<g>
</g>
<g>
</g>
<g>
</g>
<g>
</g>
</symbol><symbol id="prop-biologicalSex-male" viewBox="0 0 512.205 512.205"><g><path d="m496.9 0h-96.127c-8.284 0-15 6.716-15 15s6.716 15 15 15h59.956l-117.577 117.577c-81.432-70.25-204.922-66.759-282.166 10.487-80.908 80.907-80.908 212.554 0 293.461 40.454 40.454 93.592 60.681 146.73 60.681s106.277-20.227 146.73-60.681c77.437-77.436 80.747-201.346 9.954-282.77l117.5-117.5v59.873c0 8.284 6.716 15 15 15s15-6.716 15-15v-96.128c0-8.284-6.716-15-15-15zm-163.666 430.312c-69.211 69.21-181.824 69.21-251.035 0-69.21-69.211-69.21-181.825 0-251.035 34.605-34.605 80.062-51.908 125.518-51.908s90.912 17.303 125.518 51.908c69.209 69.21 69.209 181.824-.001 251.035z"/></g></symbol><symbol id="prop-bloodPressure" viewBox="0 0 513.002 513.002"><path d="m512.502 213.9c0-75.458-61.389-136.847-136.846-136.847-2.165 0-4.318.057-6.459.157-7.37-26.117-25.252-49.131-49.752-63.292-26.46-15.296-57.174-17.592-84.263-6.298-21.88 9.118-38.103 26.55-48.47 40.816-10.367-14.267-26.589-31.698-48.47-40.816-27.616-11.51-58.821-8.925-85.614 7.092-28.717 17.168-48.514 47.682-51.664 79.633-.008.083-.016.166-.022.249-6.449 78.895 58.919 135.836 116.52 176.58 21.944 15.706 42.285 28.507 62.185 39.134 4.416 2.358 9.716 2.358 14.132 0 18.879-10.082 38.156-22.125 58.762-36.701 15.739 32.323 43.84 57.558 78.112 69.527v124.343c0 24.813 20.187 45 45 45s45-20.186 45-45v-124.34c53.418-18.653 91.849-69.537 91.849-129.237zm-274 32.88c-18.254 13.065-35.272 23.979-51.79 33.205-16.518-9.227-33.542-20.146-51.858-33.254-23.335-16.506-52.88-38.903-74.409-65.81-22.226-27.778-31.914-55.176-29.614-83.752 2.273-22.626 16.515-44.347 37.19-56.708 18.818-11.249 39.656-13.077 58.68-5.149 29.209 12.172 46.251 47.854 46.405 48.182 2.459 5.295 7.767 8.683 13.605 8.683s11.146-3.388 13.605-8.683c.166-.358 17.416-36.102 46.406-48.182 18.652-7.776 39.146-6.148 57.709 4.58 16.377 9.466 28.932 24.899 34.803 42.09-57.832 15.986-100.424 69.067-100.424 131.918 0 10.395 1.171 20.521 3.377 30.258-1.191.852-2.41 1.72-3.685 2.622zm152.15 220.697c0 8.271-6.729 15-15 15s-15-6.729-15-15v-117.558c4.929.54 9.933.826 15.004.826 5.068 0 10.07-.286 14.996-.825zm-14.996-146.732c-58.915 0-106.846-47.931-106.846-106.846s47.931-106.847 106.846-106.847 106.846 47.933 106.846 106.848-47.931 106.845-106.846 106.845z"/><path d="m412.577 155.768-17.534 17.528c-5.874-2.816-12.449-4.396-19.387-4.396-24.813 0-45 20.187-45 45s20.187 45 45 45 45-20.187 45-45c0-6.94-1.581-13.516-4.399-19.392l17.53-17.523c5.859-5.856 5.86-15.354.003-21.213-5.856-5.861-15.353-5.861-21.213-.004zm-36.921 73.132c-8.271 0-15-6.729-15-15s6.729-15 15-15 15 6.729 15 15-6.729 15-15 15z"/></symbol><symbol id="prop-bloodType" viewBox="0 0 512 512">
<g>
	<g>
		<g>
			<path d="M270.889,7.072c-7.683-9.435-22.104-9.425-29.778,0C188.88,71.214,66.464,237.176,66.464,322.464
				C66.464,426.974,151.49,512,256,512s189.537-85.026,189.537-189.537C445.537,237.147,322.549,70.511,270.889,7.072z M256,473.6
				c-83.336,0-151.136-67.8-151.136-151.136c0-64.77,98.285-204.471,151.139-272.405c52.854,67.916,151.135,207.59,151.135,272.405
				C407.136,405.802,339.338,473.6,256,473.6z"/>
			<path d="M165.382,322.464c0-0.097,0.134-10.015,10.618-34.825c4.128-9.768-0.444-21.032-10.213-25.159
				c-9.768-4.128-21.032,0.445-25.159,10.213c-11.873,28.098-13.646,43.244-13.646,49.772c0,10.599,8.588,19.18,19.187,19.187
				c0.004,0,0.008,0,0.013,0C156.775,341.651,165.368,333.058,165.382,322.464z"/>
			<path d="M256,413.082c-29.485,0-57.243-14.482-74.254-38.74c-6.088-8.681-18.061-10.784-26.743-4.696
				c-8.682,6.088-10.785,18.061-4.696,26.745c24.19,34.496,63.702,55.092,105.694,55.092c10.604,0,19.2-8.597,19.2-19.2
				C275.2,421.679,266.604,413.082,256,413.082z"/>
		</g>
	</g>
</g>
<g>
</g>
<g>
</g>
<g>
</g>
<g>
</g>
<g>
</g>
<g>
</g>
<g>
</g>
<g>
</g>
<g>
</g>
<g>
</g>
<g>
</g>
<g>
</g>
<g>
</g>
<g>
</g>
<g>
</g>
</symbol><symbol id="prop-height" viewBox="0 0 512 512"><g><path d="m216 100h-5.271c6.489-10.112 10.271-22.119 10.271-35 0-35.841-29.159-65-65-65s-65 29.159-65 65c0 12.881 3.782 24.888 10.271 35h-5.271c-41.355 0-75 33.645-75 75v102c0 24.813 20.187 45 45 45 5.257 0 10.307-.906 15-2.57v147.57c0 24.813 20.187 45 45 45 11.515 0 22.033-4.347 30-11.486 7.967 7.139 18.485 11.486 30 11.486 24.813 0 45-20.187 45-45v-147.57c4.693 1.664 9.743 2.57 15 2.57 24.813 0 45-20.187 45-45v-102c0-41.355-33.645-75-75-75zm-95-35c0-19.299 15.701-35 35-35s35 15.701 35 35-15.701 35-35 35-35-15.701-35-35zm140 212c0 8.271-6.729 15-15 15s-15-6.729-15-15v-80c0-8.284-6.716-15-15-15s-15 6.716-15 15v270c0 8.271-6.729 15-15 15s-15-6.729-15-15v-120c0-8.284-6.716-15-15-15s-15 6.716-15 15v120c0 8.271-6.729 15-15 15s-15-6.729-15-15v-270c0-8.284-6.716-15-15-15s-15 6.716-15 15v80c0 8.271-6.729 15-15 15s-15-6.729-15-15v-102c0-24.813 20.187-45 45-45h120c24.813 0 45 20.187 45 45z"/><path d="m476 0h-200c-8.284 0-15 6.716-15 15s6.716 15 15 15h65v467c0 8.284 6.716 15 15 15h120c8.284 0 15-6.716 15-15v-482c0-8.284-6.716-15-15-15zm-15 482h-90v-31h15c8.284 0 15-6.716 15-15s-6.716-15-15-15h-15v-30h35c8.284 0 15-6.716 15-15s-6.716-15-15-15h-35v-30h15c8.284 0 15-6.716 15-15s-6.716-15-15-15h-15v-30h35c8.284 0 15-6.716 15-15s-6.716-15-15-15h-35v-30h15c8.284 0 15-6.716 15-15s-6.716-15-15-15h-15v-30h35c8.284 0 15-6.716 15-15s-6.716-15-15-15h-35v-30h15c8.284 0 15-6.716 15-15s-6.716-15-15-15h-15v-31h90z"/></g></symbol><symbol id="prop-laboratory" viewBox="0 0 682.7 682.7">
  <!-- Generator: Adobe Illustrator 29.0.1, SVG Export Plug-In . SVG Version: 2.1.0 Build 192)  -->
  <path d="M401.3,120V0H121.3v120h40v462.7c0,55.1,44.9,100,100,100s100-44.9,100-100V120h40ZM161.3,40h200v40h-200v-40ZM261.3,642.7c-33.1,0-60-26.9-60-60v-300h120v300c0,33.1-26.9,60-60,60ZM321.3,242.7h-120v-122.7h120v122.7Z"/>
  <path d="M528.6,400.2c-15.2-26.2-30.2-48-30.8-48.9l-16.5-23.8-16.5,23.8c-.6.9-15.6,22.7-30.8,48.9-14,24.2-32.7,59.1-32.7,82.5,0,44.1,35.9,80,80,80s80-35.9,80-80-18.7-58.3-32.7-82.5ZM481.3,522.7c-22.1,0-40-17.9-40-40s1.3-17.5,27.2-62.2c4.4-7.6,8.8-14.8,12.8-21.2,4,6.4,8.4,13.7,12.8,21.2,25.9,44.6,27.2,59.6,27.2,62.2,0,22.1-17.9,40-40,40Z"/>
</symbol><symbol id="prop-weight" viewBox="0 0 511.998 511.998"><g><path d="m454.923 180.669-94.801-29.246c-6.679-51.507-50.826-91.423-104.123-91.423-53.296 0-97.444 39.915-104.124 91.423l-94.8 29.246c-6.817 2.103-11.21 8.717-10.505 15.816l30.002 301.995c.762 7.673 7.217 13.518 14.927 13.518h328.998c7.71 0 14.164-5.845 14.927-13.517l30.004-301.996c.705-7.099-3.688-13.714-10.505-15.816zm-198.924-90.669c41.355 0 75 33.645 75 75s-33.646 75-75 75-75-33.645-75-75 33.644-75 75-75zm150.914 391.998h-301.831l-27.446-276.277 74.851-23.093c8.408 49.533 51.621 87.372 103.512 87.372s95.103-37.838 103.512-87.371l74.852 23.092z"/><path d="m100.151 125.172c2.782 5.358 8.512 8.539 14.521 8.039 6.018-.486 11.156-4.532 13.042-10.267 18.276-55.592 69.829-92.944 128.285-92.944 58.455 0 110.008 37.352 128.284 92.944 2.076 6.315 7.944 10.319 14.247 10.319 1.553 0 3.132-.243 4.688-.754 7.87-2.588 12.152-11.064 9.565-18.935-10.766-32.745-31.203-60.921-59.103-81.48-28.495-20.996-62.273-32.094-97.681-32.094-35.41 0-69.187 11.098-97.681 32.095-18.99 13.993-34.521 31.513-45.9 51.601l-4.004-7.711c-3.817-7.353-12.871-10.218-20.225-6.4-7.352 3.817-10.217 12.873-6.4 20.225z"/><path d="m245.392 175.606c2.929 2.929 6.768 4.394 10.606 4.394s7.678-1.465 10.607-4.394c5.857-5.858 5.857-15.354 0-21.213l-21.135-21.134c-5.857-5.857-15.355-5.857-21.213 0s-5.858 15.355.001 21.213z"/><path d="m253.917 310.007c-8.284 0-15 6.716-15 15v91.983c0 8.284 6.716 15 15 15s15-6.716 15-15v-91.983c0-8.284-6.716-15-15-15z"/></g></symbol><symbol id="registration-form" viewBox="0 0 512 512"><g><path d="m75 212h240c19.881-.738 19.866-29.269 0-30h-240c-19.881.738-19.866 29.269 0 30z"/><path d="m75 272h120c19.881-.738 19.866-29.269 0-30h-120c-19.881.738-19.866 29.269 0 30z"/><path d="m75 332h120c19.881-.738 19.866-29.269 0-30h-120c-19.881.738-19.866 29.269 0 30z"/><path d="m75 392h80c19.881-.738 19.866-29.269 0-30h-80c-19.881.738-19.866 29.269 0 30z"/><path d="m165 121h15v15c.738 19.881 29.269 19.866 30 0v-15h15c19.881-.738 19.866-29.269 0-30h-15v-15c-.738-19.881-29.269-19.866-30 0v15h-15c-19.881.738-19.866 29.269 0 30z"/><path d="m498.841 143.537c-17.545-17.545-46.094-17.545-63.64 0l-45.201 45.202v-78.739h45c8.284 0 15-6.716 15-15v-50c0-24.813-20.187-45-45-45h-360c-24.813 0-45 20.187-45 45v452c0 8.284 6.716 15 15 15h360c8.284 0 15-6.716 15-15v-180.982l108.841-108.841c17.545-17.545 17.545-46.094 0-63.64zm-108.841-98.537c.757-19.877 29.251-19.862 30 0v35h-30zm-30 437h-330v-437c0-8.271 6.729-15 15-15h317.58c-1.665 4.695-2.58 9.742-2.58 15v173.739l-109.842 109.842c-26.114 26.114-45.379 58.218-56.161 93.419h-118.997c-19.881.738-19.866 29.269 0 30h130.37s.132 0 .198-.001c1.133-.019 2.291-.167 3.462-.46 39.645-9.911 75.872-30.423 104.768-59.318l46.202-46.203zm-67.415-110.992c-18.288 18.288-39.967 32.704-63.711 42.498 9.793-23.744 24.209-45.422 42.498-63.711l124.939-124.94 21.213 21.213zm185.043-185.044-38.891 38.891-21.213-21.213 38.891-38.891c5.849-5.848 15.365-5.848 21.213 0s5.848 15.364 0 21.213z"/></g></symbol><symbol id="report-dental" viewBox="0 0 512 512"><g><path d="m512 103c0-56.794-46.206-103-103-103-38.281 0-71.748 20.994-89.501 52.071-53.079-13.753-81.906 11.929-112.499 11.929-21.935 0-50.291-16-80-16-72.402 0-127 58.037-127 135 0 84.08 72 128.936 72 160 0 37.57 3.897 67.782 11.584 89.797 13.044 37.361 35.16 45.203 51.416 45.203 19.486 0 30.036-19.05 40.238-37.473 8.963-16.184 19.121-34.527 31.762-34.527s22.799 18.343 31.762 34.527c10.202 18.423 20.752 37.473 40.238 37.473 16.256 0 38.372-7.842 51.416-45.203 7.687-22.015 11.584-52.227 11.584-89.797 0-27.727 59.173-68.316 70.17-137.054 55.333-1.681 99.83-47.214 99.83-102.946zm-200 240c0 33.713-3.426 61.345-9.907 79.908-8.276 23.706-18.362 25.016-22.44 25.088-13.108-8.053-28.045-71.996-72.653-71.996-44.548 0-59.555 63.949-72.652 71.996-4.078-.072-14.164-1.382-22.44-25.088-6.482-18.563-9.908-46.195-9.908-79.908 0-48.359-72-84.695-72-160 0-60.841 40.794-105 97-105 24.078 0 52.036 16 80 16 36.663 0 59.771-22.858 101.526-13.7-12.205 54.049 20.659 107.93 73.801 122.19-10.864 62.795-70.327 96.36-70.327 140.51zm97-167c-40.252 0-73-32.748-73-73s32.748-73 73-73 73 32.748 73 73-32.748 73-73 73z"/><path d="m433 88h-9v-9c0-8.284-6.716-15-15-15s-15 6.716-15 15v9h-9c-8.284 0-15 6.716-15 15s6.716 15 15 15h9v9c0 8.284 6.716 15 15 15s15-6.716 15-15v-9h9c8.284 0 15-6.716 15-15s-6.716-15-15-15z"/></g></symbol><symbol id="report-dicom" viewBox="0 0 512 512"><g><path d="m467 0h-422c-24.813 0-45 20.187-45 45v422c0 24.813 20.187 45 45 45h422c24.813 0 45-20.187 45-45v-422c0-24.813-20.187-45-45-45zm15 467c0 8.271-6.729 15-15 15h-422c-8.271 0-15-6.729-15-15v-422c0-8.271 6.729-15 15-15h422c8.271 0 15 6.729 15 15z"/><path d="m406 211c8.284 0 15-6.716 15-15v-60c0-24.813-20.187-45-45-45h-105v-15c0-8.284-6.716-15-15-15s-15 6.716-15 15v15h-105c-24.813 0-45 20.187-45 45v60c0 8.284 6.716 15 15 15s15-6.716 15-15v-60c0-8.271 6.729-15 15-15h105v15c0 8.271-6.729 15-15 15h-60c-8.284 0-15 6.716-15 15s6.716 15 15 15h60c5.259 0 10.305-.915 15-2.58v17.58c0 8.271-6.729 15-15 15h-60c-8.284 0-15 6.716-15 15s6.716 15 15 15h60c5.259 0 10.305-.915 15-2.58v32.58h-30c-33.084 0-60 26.916-60 60 0 17.467 7.507 33.211 19.459 44.186l-18.69 56.071c-2.619 7.859 1.628 16.354 9.487 18.974 7.857 2.62 16.353-1.627 18.974-9.487l17.11-51.331c4.392 1.026 8.96 1.587 13.66 1.587 17.545 0 33.825-7.678 45-20.319 11.175 12.641 27.455 20.319 45 20.319 4.7 0 9.268-.561 13.66-1.587l17.11 51.331c2.62 7.859 11.114 12.107 18.974 9.487 7.859-2.62 12.106-11.115 9.487-18.974l-18.69-56.071c11.952-10.975 19.459-26.719 19.459-44.186 0-33.084-26.915-60-59.999-60h-30.001v-32.58c4.695 1.665 9.741 2.58 15 2.58h60c8.284 0 15-6.716 15-15s-6.716-15-15-15h-60c-8.271 0-15-6.729-15-15v-17.58c4.695 1.665 9.741 2.58 15 2.58h60c8.284 0 15-6.716 15-15s-6.716-15-15-15h-60c-8.271 0-15-6.729-15-15v-15h105c8.271 0 15 6.729 15 15v60c0 8.284 6.716 15 15 15zm-75 120c0 16.542-13.458 30-30 30-12.697 0-24.068-8.037-28.297-19.999-2.118-5.994-7.785-10.001-14.143-10.001h-5.121c-6.357 0-12.024 4.007-14.143 10.001-4.228 11.962-15.599 19.999-28.296 19.999-16.542 0-30-13.458-30-30s13.458-30 30-30h90.001c16.541 0 29.999 13.458 29.999 30z"/><path d="m112.708 242.583c-7.406-3.703-16.418-.702-20.124 6.708l-30 60c-3.705 7.41-.702 16.42 6.708 20.125 7.419 3.709 16.424.691 20.124-6.708l30-60c3.705-7.409.702-16.42-6.708-20.125z"/><path d="m419.416 249.292c-3.704-7.409-12.714-10.413-20.124-6.708s-10.413 12.715-6.708 20.125l30 60c3.698 7.397 12.702 10.419 20.124 6.708 7.41-3.705 10.413-12.715 6.708-20.125z"/></g></symbol><symbol id="report-exam" viewBox="0 0 512 512"><g><path d="m408 273c-20.671 0-38.255 13.42-44.531 32h-11.469c-34.738 0-63 28.262-63 63v81c0 18.196-14.804 33-33 33h-24c-18.196 0-33-14.804-33-33v-138.523c22.607-3.391 40-22.939 40-46.477v-16.079c42.022-15.822 72-56.433 72-103.921v-81c0-25.916-21.084-47-47-47h-17v-1c0-8.284-6.716-15-15-15s-15 6.716-15 15v32c0 8.284 6.716 15 15 15s15-6.716 15-15v-1h17c9.374 0 17 7.626 17 17v81c0 44.663-36.337 81-81 81h-32c-44.663 0-81-36.337-81-81v-81c0-9.374 7.626-17 17-17h17v1c0 8.284 6.716 15 15 15s15-6.716 15-15v-32c0-8.284-6.716-15-15-15s-15 6.716-15 15v1h-17c-25.916 0-47 21.084-47 47v81c0 47.488 29.978 88.099 72 103.921v16.079c0 23.538 17.393 43.085 40 46.477v138.523c0 34.738 28.262 63 63 63h24c34.738 0 63-28.262 63-63v-81c0-18.196 14.804-33 33-33h11.469c6.276 18.58 23.86 32 44.531 32 25.916 0 47-21.084 47-47s-21.084-47-47-47zm-249-9v-9.366c2.969.239 5.97.366 9 .366h32c3.03 0 6.031-.127 9-.366v9.366c0 9.374-7.626 17-17 17h-16c-9.374 0-17-7.626-17-17zm249 73c-9.374 0-17-7.626-17-17s7.626-17 17-17 17 7.626 17 17-7.626 17-17 17z"/></g></symbol><symbol id="report-general" viewBox="0 0 512 512"><g><path d="m408 273c-20.671 0-38.255 13.42-44.531 32h-11.469c-34.738 0-63 28.262-63 63v81c0 18.196-14.804 33-33 33h-24c-18.196 0-33-14.804-33-33v-138.523c22.607-3.391 40-22.939 40-46.477v-16.079c42.022-15.822 72-56.433 72-103.921v-81c0-25.916-21.084-47-47-47h-17v-1c0-8.284-6.716-15-15-15s-15 6.716-15 15v32c0 8.284 6.716 15 15 15s15-6.716 15-15v-1h17c9.374 0 17 7.626 17 17v81c0 44.663-36.337 81-81 81h-32c-44.663 0-81-36.337-81-81v-81c0-9.374 7.626-17 17-17h17v1c0 8.284 6.716 15 15 15s15-6.716 15-15v-32c0-8.284-6.716-15-15-15s-15 6.716-15 15v1h-17c-25.916 0-47 21.084-47 47v81c0 47.488 29.978 88.099 72 103.921v16.079c0 23.538 17.393 43.085 40 46.477v138.523c0 34.738 28.262 63 63 63h24c34.738 0 63-28.262 63-63v-81c0-18.196 14.804-33 33-33h11.469c6.276 18.58 23.86 32 44.531 32 25.916 0 47-21.084 47-47s-21.084-47-47-47zm-249-9v-9.366c2.969.239 5.97.366 9 .366h32c3.03 0 6.031-.127 9-.366v9.366c0 9.374-7.626 17-17 17h-16c-9.374 0-17-7.626-17-17zm249 73c-9.374 0-17-7.626-17-17s7.626-17 17-17 17 7.626 17 17-7.626 17-17 17z"/></g></symbol><symbol id="report-imaging" viewBox="0 0 512 512"><g><path d="m467 0h-422c-24.813 0-45 20.187-45 45v422c0 24.813 20.187 45 45 45h422c24.813 0 45-20.187 45-45v-422c0-24.813-20.187-45-45-45zm15 467c0 8.271-6.729 15-15 15h-422c-8.271 0-15-6.729-15-15v-422c0-8.271 6.729-15 15-15h422c8.271 0 15 6.729 15 15z"/><path d="m406 211c8.284 0 15-6.716 15-15v-60c0-24.813-20.187-45-45-45h-105v-15c0-8.284-6.716-15-15-15s-15 6.716-15 15v15h-105c-24.813 0-45 20.187-45 45v60c0 8.284 6.716 15 15 15s15-6.716 15-15v-60c0-8.271 6.729-15 15-15h105v15c0 8.271-6.729 15-15 15h-60c-8.284 0-15 6.716-15 15s6.716 15 15 15h60c5.259 0 10.305-.915 15-2.58v17.58c0 8.271-6.729 15-15 15h-60c-8.284 0-15 6.716-15 15s6.716 15 15 15h60c5.259 0 10.305-.915 15-2.58v32.58h-30c-33.084 0-60 26.916-60 60 0 17.467 7.507 33.211 19.459 44.186l-18.69 56.071c-2.619 7.859 1.628 16.354 9.487 18.974 7.857 2.62 16.353-1.627 18.974-9.487l17.11-51.331c4.392 1.026 8.96 1.587 13.66 1.587 17.545 0 33.825-7.678 45-20.319 11.175 12.641 27.455 20.319 45 20.319 4.7 0 9.268-.561 13.66-1.587l17.11 51.331c2.62 7.859 11.114 12.107 18.974 9.487 7.859-2.62 12.106-11.115 9.487-18.974l-18.69-56.071c11.952-10.975 19.459-26.719 19.459-44.186 0-33.084-26.915-60-59.999-60h-30.001v-32.58c4.695 1.665 9.741 2.58 15 2.58h60c8.284 0 15-6.716 15-15s-6.716-15-15-15h-60c-8.271 0-15-6.729-15-15v-17.58c4.695 1.665 9.741 2.58 15 2.58h60c8.284 0 15-6.716 15-15s-6.716-15-15-15h-60c-8.271 0-15-6.729-15-15v-15h105c8.271 0 15 6.729 15 15v60c0 8.284 6.716 15 15 15zm-75 120c0 16.542-13.458 30-30 30-12.697 0-24.068-8.037-28.297-19.999-2.118-5.994-7.785-10.001-14.143-10.001h-5.121c-6.357 0-12.024 4.007-14.143 10.001-4.228 11.962-15.599 19.999-28.296 19.999-16.542 0-30-13.458-30-30s13.458-30 30-30h90.001c16.541 0 29.999 13.458 29.999 30z"/><path d="m112.708 242.583c-7.406-3.703-16.418-.702-20.124 6.708l-30 60c-3.705 7.41-.702 16.42 6.708 20.125 7.419 3.709 16.424.691 20.124-6.708l30-60c3.705-7.409.702-16.42-6.708-20.125z"/><path d="m419.416 249.292c-3.704-7.409-12.714-10.413-20.124-6.708s-10.413 12.715-6.708 20.125l30 60c3.698 7.397 12.702 10.419 20.124 6.708 7.41-3.705 10.413-12.715 6.708-20.125z"/></g></symbol><symbol id="report-immunization" viewBox="0 0 512 512"><g><path d="m482.073 102.831c-.622-7.796-7.13-13.806-14.95-13.806-75.438 0-125.366-22.313-153.967-41.031-30.94-20.25-44.371-40.812-44.465-40.958-2.746-4.359-7.519-7.036-12.672-7.036s-9.926 2.616-12.672 6.977c-.132.205-13.563 20.767-44.503 41.017-28.601 18.718-78.529 41.031-153.967 41.031-7.82 0-14.328 6.009-14.95 13.806-.273 3.429-6.433 85.047 17.061 176.298 13.945 54.164 35.517 100.385 64.116 137.38 36.191 46.815 83.569 78.752 140.819 94.927 2.666.752 5.488.752 8.154 0 57.25-16.175 104.628-48.112 140.819-94.927 28.599-36.995 50.171-83.216 64.116-137.38 23.494-91.251 17.335-172.869 17.061-176.298zm-46.108 168.818c-12.924 50.194-32.706 92.759-58.799 126.511-31.312 40.504-72.059 68.486-121.166 83.219-48.977-14.693-89.639-42.567-120.916-82.896-26.086-33.636-45.888-76.058-58.857-126.09-16.969-65.462-17.681-127.16-16.998-153.624 75.945-2.706 127.363-26.56 157.683-46.76 17.877-11.909 30.681-23.934 39.088-33.094 8.407 9.161 21.211 21.185 39.088 33.095 30.321 20.201 81.74 44.057 157.693 46.761.694 26.322.008 87.532-16.816 152.878z"/><path d="m387.167 204.678c-3.169-7.653-11.943-11.285-19.595-8.118l-21.313 8.83c-9.154-15.434-21.881-27.851-36.656-36.605l8.845-21.353c3.17-7.653-.463-16.428-8.115-19.597-7.652-3.173-16.426.463-19.596 8.116l-8.846 21.355c-16.636-4.257-34.413-4.478-51.797-.039l-8.83-21.316c-3.17-7.653-11.942-11.288-19.596-8.116-7.652 3.17-11.285 11.945-8.115 19.597l8.826 21.308c-15.151 8.958-27.686 21.495-36.644 36.647l-21.306-8.827c-7.653-3.17-16.426.464-19.595 8.118-3.17 7.653.464 16.427 8.116 19.597l21.301 8.825c-4.379 17.048-4.379 34.781 0 51.829l-21.301 8.825c-7.652 3.171-11.286 11.945-8.116 19.597 2.393 5.777 7.976 9.263 13.862 9.263 1.912 0 3.857-.368 5.734-1.145l21.319-8.832c9.154 15.434 21.88 27.845 36.653 36.599l-8.849 21.361c-3.17 7.653.463 16.428 8.115 19.597 1.877.778 3.822 1.146 5.734 1.146 5.885 0 11.469-3.486 13.862-9.262l8.848-21.36c8.448 2.161 17.189 3.291 26.025 3.291 8.561-.001 17.214-1.061 25.77-3.246l8.83 21.315c2.393 5.776 7.976 9.262 13.861 9.262 1.912 0 3.858-.368 5.734-1.146 7.652-3.17 11.285-11.945 8.115-19.597l-8.827-21.308c15.151-8.958 27.686-21.495 36.644-36.647l21.306 8.827c1.877.777 3.821 1.145 5.734 1.145 5.885 0 11.469-3.487 13.861-9.263 3.17-7.653-.464-16.427-8.116-19.597l-21.301-8.825c4.379-17.048 4.379-34.781 0-51.829l21.301-8.825c7.654-3.17 11.287-11.944 8.118-19.597zm-200.447 83.037c-16.195-36.924 3.027-83.331 40.583-97.986 37.276-15.716 82.156 2.008 97.976 40.587 16.195 36.924-3.027 83.331-40.583 97.986-38.201 15.83-82.152-2.383-97.976-40.587z"/><circle cx="233.004" cy="240.016" r="14.998"/><circle cx="277.996" cy="279.014" r="14.998"/></g></symbol><symbol id="report-laboratory" viewBox="0 0 512 512">
  <!-- Generator: Adobe Illustrator 29.0.1, SVG Export Plug-In . SVG Version: 2.1.0 Build 192)  -->
  <path d="M468,79h-62c-24.3,0-44,19.7-44,44v31c0,7.2,5.1,13.2,11.8,14.7v30.3h-54.7v-30.3c6.8-1.5,11.8-7.5,11.8-14.7v-31c0-24.3-19.7-44-44-44h-62c-24.3,0-44,19.7-44,44v31c0,7.2,5.1,13.2,11.8,14.7v30.3h-54.7v-30.3c6.8-1.5,11.8-7.5,11.8-14.7v-31c0-24.3-19.7-44-44-44h-62C19.7,79,0,98.7,0,123v31c0,7.2,5.1,13.2,11.8,14.7v178.2c0,37.7,22.6,71.1,57.6,85.1,1.8.7,3.7,1.1,5.6,1.1s3.8-.4,5.6-1.1c35-14,57.6-47.4,57.6-85.1v-117.9h54.7v117.8c0,37.7,22.6,71.1,57.6,85.1,1.8.7,3.7,1.1,5.6,1.1s3.8-.4,5.6-1.1c35-14,57.6-47.4,57.6-85.1v-117.8h54.7v117.9c0,37.7,22.6,71.1,57.6,85.1,1.8.7,3.7,1.1,5.6,1.1s3.8-.4,5.6-1.1c35-14,57.6-47.4,57.6-85.1v-178.2c6.8-1.5,11.8-7.5,11.8-14.7v-31c0-24.3-19.7-44-44-44ZM41.8,169h66.3v42.9c-.1.7-.2,1.4-.2,2.1s0,1.4.2,2.1v42.9H41.8v-90ZM30,123c0-7.7,6.3-14,14-14h62c7.7,0,14,6.3,14,14v16H30v-16ZM75,401.5c-20.3-10.5-33.2-31.4-33.2-54.7v-57.9h66.3v57.9c0,23.3-12.8,44.1-33.2,54.7ZM222.8,169h66.3v90h-66.3v-90ZM211,123c0-7.7,6.3-14,14-14h62c7.7,0,14,6.3,14,14v16h-90v-16ZM256,401.5c-20.3-10.5-33.2-31.4-33.2-54.7v-57.8h66.3v57.8c0,23.3-12.8,44.1-33.2,54.7ZM470.2,259h-66.3v-42.9c.1-.7.2-1.4.2-2.1s0-1.4-.2-2.1v-42.9h66.3v90ZM392,123c0-7.7,6.3-14,14-14h62c7.7,0,14,6.3,14,14v16h-90v-16ZM437,401.5c-20.3-10.5-33.2-31.4-33.2-54.7v-57.9h66.3v57.9c0,23.3-12.8,44.1-33.2,54.7Z"/>
</symbol><symbol id="report-prescription" viewBox="0 0 512 512">
<g>
	
		<circle style="fill:none;stroke:#000000;stroke-width:30;stroke-linecap:round;stroke-linejoin:round;stroke-miterlimit:10;" cx="151" cy="256" r="136"/>
	<path style="fill:none;stroke:#000000;stroke-width:30;stroke-linecap:round;stroke-linejoin:round;stroke-miterlimit:10;" d="
		M425,80c-39.765,0-72,32.235-72,72v208c0,39.764,32.235,72,72,72s72-32.236,72-72V152C497,112.235,464.765,80,425,80z"/>
	
		<line style="fill:none;stroke:#000000;stroke-width:30;stroke-linecap:round;stroke-linejoin:round;stroke-miterlimit:10;" x1="361" y1="256" x2="497" y2="256"/>
	
		<line style="fill:none;stroke:#000000;stroke-width:30;stroke-linecap:round;stroke-linejoin:round;stroke-miterlimit:10;" x1="15" y1="256" x2="287" y2="256"/>
</g>















</symbol><symbol id="report-procedure" viewBox="0 0 512.591 512.591"><g><path d="m468.091 423.295h-149.468c1.85-5.026 2.82-10.374 2.82-15.874 0-12.839-5.247-24.862-14.775-33.854l-101.85-96.13c-22.319-21.066-51.935-32.668-83.391-32.668h-43.656v-15.054c0-8.284-6.716-15-15-15h-47.771c-8.284 0-15 6.716-15 15s6.716 15 15 15h32.771v144.242h-32.771c-8.284 0-15 6.716-15 15s6.716 15 15 15h47.771c8.284 0 15-6.716 15-15v-18.817h17.176l101.673 101.672c.128.128.257.253.389.376 17.404 16.191 40.388 25.108 64.719 25.108h206.363c24.537 0 44.5-19.962 44.5-44.5s-19.963-44.501-44.5-44.501zm0 59h-206.363c-16.634 0-32.284-6-44.097-16.898l-105.864-105.865c-2.813-2.813-6.628-4.393-10.606-4.393h-23.39v-80.371h43.657c23.423 0 46.312 8.924 62.799 24.485l101.85 96.13c3.46 3.266 5.366 7.541 5.366 12.038s-1.906 8.772-5.366 12.038c-5.918 5.587-13.683 3.921-23.081-4.949l-75.743-71.49c-6.025-5.688-15.518-5.413-21.204.612-5.686 6.024-5.412 15.518.612 21.205l75.743 71.49c11.371 10.732 23.932 16.236 35.905 16.397l189.782.571c7.995 0 14.5 6.505 14.5 14.5 0 7.996-6.505 14.5-14.5 14.5z"/><path d="m220.201 147.498c21.802 21.39 43.381 36.281 44.288 36.905 2.559 1.757 5.525 2.635 8.491 2.635 2.983 0 5.966-.888 8.532-2.663.901-.623 22.321-15.512 44.039-36.895 30.869-30.396 46.599-58.319 46.75-82.994.109-17.918-6.752-35.163-18.826-47.311-10.818-10.885-24.88-16.88-39.596-16.88-15.647 0-30.217 6.85-40.898 18.35-10.683-11.5-25.251-18.35-40.899-18.35-15.946 0-30.824 6.91-41.892 19.458-10.558 11.969-16.429 27.79-16.531 44.548-.152 24.758 15.507 52.749 46.542 83.197zm11.88-117.203c11.74 0 22.424 8.926 26.584 22.212 1.96 6.258 7.757 10.517 14.314 10.517 6.558 0 12.354-4.259 14.314-10.517 4.161-13.286 14.844-22.212 26.584-22.212 6.668 0 13.174 2.851 18.318 8.027 6.483 6.522 10.166 15.992 10.105 25.979-.097 15.878-13.416 37.722-37.504 61.51-11.981 11.832-24.102 21.66-31.887 27.632-24.496-18.644-69.437-59.016-69.253-88.958.117-18.852 12.868-34.19 28.425-34.19z"/><path d="m499.589 32.216c-4.792-3.378-14.857-9.543-27.914-12.435v-4.062c0-8.077-6.207-15.027-14.275-15.407-8.614-.406-15.725 6.458-15.725 14.983v5.038c-.566.153-1.13.292-1.699.463-16.974 5.113-28.981 18.483-31.337 34.892-2.208 15.383 4.46 30.18 17.4 38.617.663.432 1.358.811 2.081 1.133.72.321 17.845 7.944 37.134 15.059 5.589 2.062 18.404 7.901 16.678 17.57-1.283 7.184-9.974 14.615-22.296 14.615-12.357 0-24.26-4.919-31.948-13.181-5.669-6.092-15.216-7.003-21.422-1.46-6.217 5.553-6.711 15.096-1.123 21.262 9.396 10.368 22.362 17.756 36.532 21.197v4.666c0 8.077 6.207 15.027 14.275 15.407 8.614.406 15.725-6.458 15.725-14.983v-4.159c8.087-1.694 15.655-5.076 22.02-9.935 9.515-7.266 15.825-17.265 17.771-28.155 3.059-17.133-4.747-39.525-35.829-50.99-15.384-5.674-29.699-11.856-33.993-13.737-3.671-2.902-3.551-6.972-3.308-8.663.33-2.303 1.995-7.93 10.293-10.43 16.068-4.841 31.114 5.301 34.152 7.528.439.322.886.631 1.366.889 5.435 2.922 12.345 2.281 17.179-2.1.767-.696 1.45-1.454 2.047-2.262 5.022-6.798 3.124-16.489-3.784-21.36z"/><path d="m340.939 371.594h65.489c8.284 0 15-6.716 15-15v-30.482h30.482c8.284 0 15-6.716 15-15v-65.489c0-8.284-6.716-15-15-15h-30.482v-30.483c0-8.284-6.716-15-15-15h-65.489c-8.284 0-15 6.716-15 15v30.483h-30.482c-8.284 0-15 6.716-15 15v65.489c0 8.284 6.716 15 15 15h30.482v30.482c0 8.284 6.716 15 15 15zm-30.482-75.483v-35.489h30.482c8.284 0 15-6.716 15-15v-30.482h35.489v30.483c0 8.284 6.716 15 15 15h30.482v35.489h-30.482c-8.284 0-15 6.716-15 15v30.482h-35.489v-30.482c0-8.284-6.716-15-15-15h-30.482z"/></g></symbol><symbol id="report-report" viewBox="-110 -21 682 682.66669"><path d="m419.417969 81.960938h-81.578125c-1.324219-11.351563-6.675782-21.847657-15.371094-30.023438-9.902344-9.300781-22.980469-14.414062-36.800781-14.414062h-9.160157c-5.855468-21.546876-26.425781-37.523438-50.839843-37.523438-24.414063 0-44.988281 15.976562-50.839844 37.523438h-9.160156c-26.964844 0-49.238281 19.476562-52.164063 44.4375h-81.585937c-20.675781 0-37.5 16.828124-37.5 37.5v483.039062c0 20.671875 16.824219 37.5 37.5 37.5h387.5c20.671875 0 37.5-16.828125 37.5-37.5v-483.039062c0-20.671876-16.828125-37.5-37.5-37.5zm-253.75-19.4375h20c6.898437 0 12.5-5.585938 12.5-12.484376.011719-13.8125 12.347656-25.039062 27.5-25.039062 15.148437 0 27.484375 11.226562 27.5 25.039062 0 6.898438 5.597656 12.484376 12.5 12.484376h20c7.449219 0 14.445312 2.714843 19.6875 7.636718 5.039062 4.726563 7.8125 10.914063 7.8125 17.414063 0 1.472656-.152344 2.988281-.441407 4.4375-2.371093 11.9375-13.757812 20.601562-27.058593 20.601562h-120c-7.453125 0-14.449219-2.710937-19.703125-7.652343-2.648438-2.476563-4.6875-5.371094-5.996094-8.511719-.253906-.558594-.464844-1.152344-.648438-1.738281-.117187-.289063-.203124-.585938-.28125-.886719-.085937-.300781-.175781-.601563-.234374-.898438-.078126-.289062-.140626-.578125-.199219-.863281-.015625-.050781-.027344-.113281-.027344-.164062-.273437-1.449219-.410156-2.898438-.410156-4.324219 0-13.808594 12.335937-25.050781 27.5-25.050781zm266.25 539.976562c0 6.890625-5.613281 12.5-12.5 12.5h-387.5c-6.890625 0-12.5-5.609375-12.5-12.5v-483.039062c0-6.886719 5.609375-12.5 12.5-12.5h85.351562c2.707031 6.128906 6.722657 11.652343 11.59375 16.238281 9.902344 9.300781 22.980469 14.414062 36.804688 14.414062h120c19.863281 0 40.800781-11.679687 48.398437-30.652343h85.351563c6.886719 0 12.5 5.613281 12.5 12.5zm0 0"/><path d="m170.457031 338.167969h-52.082031c-6.902344 0-12.5-5.59375-12.5-12.5v-23.992188h-23.957031c-6.90625 0-12.5-5.597656-12.5-12.5v-52.136719c0-6.902343 5.59375-12.5 12.5-12.5h23.957031v-23.996093c0-6.90625 5.597656-12.5 12.5-12.5h52.082031c6.902344 0 12.5 5.59375 12.5 12.5v23.996093h23.960938c6.902343 0 12.5 5.597657 12.5 12.5v52.136719c0 6.902344-5.597657 12.5-12.5 12.5h-23.960938v23.992188c0 6.90625-5.597656 12.5-12.5 12.5zm-39.582031-25h27.082031v-23.992188c0-6.90625 5.601563-12.5 12.5-12.5h23.960938v-27.136719h-23.960938c-6.898437 0-12.5-5.597656-12.5-12.5v-23.996093h-27.082031v23.996093c0 6.902344-5.597656 12.5-12.5 12.5h-23.957031v27.136719h23.957031c6.902344 0 12.5 5.59375 12.5 12.5zm0 0"/><path d="m369.417969 413.246094h-237.5c-6.90625 0-12.5-5.59375-12.5-12.5 0-6.902344 5.59375-12.5 12.5-12.5h237.5c6.902343 0 12.5 5.597656 12.5 12.5 0 6.90625-5.597657 12.5-12.5 12.5zm0 0"/><path d="m81.941406 413.246094c-6.90625 0-12.503906-5.59375-12.503906-12.5 0-6.902344 5.589844-12.5 12.492188-12.5h.011718c6.902344 0 12.5 5.597656 12.5 12.5 0 6.90625-5.597656 12.5-12.5 12.5zm0 0"/><path d="m369.417969 488.324219h-287.5c-6.90625 0-12.5-5.59375-12.5-12.5 0-6.902344 5.59375-12.5 12.5-12.5h287.5c6.902343 0 12.5 5.597656 12.5 12.5 0 6.90625-5.597657 12.5-12.5 12.5zm0 0"/><path d="m369.417969 563.398438h-287.5c-6.90625 0-12.5-5.59375-12.5-12.5s5.59375-12.5 12.5-12.5h287.5c6.902343 0 12.5 5.59375 12.5 12.5s-5.597657 12.5-12.5 12.5zm0 0"/></symbol><symbol id="report-survey" viewBox="0 0 512 512"><g><path d="m512 32.625c0-17.989-14.636-32.625-32.625-32.625h-25c-17.989 0-32.625 14.636-32.625 32.625v390.545c0 2.014.403 3.931 1.123 5.686-.001.001-.002.002-.003.003l.035.084c.015.035.028.071.043.106l30.047 73.31c2.309 5.633 7.793 9.312 13.88 9.312s11.571-3.679 13.88-9.312l30.047-73.31c.015-.035.029-.071.043-.106l.035-.084c-.001-.001-.002-.002-.003-.003.72-1.754 1.123-3.672 1.123-5.686zm-57.625-2.625h25c1.447 0 2.625 1.178 2.625 2.625v27.625h-30.25v-27.625c0-1.447 1.178-2.625 2.625-2.625zm27.625 60.25v317.92h-30.25v-317.92zm-22.891 347.92h15.532l-7.766 18.948z"/><path d="m376.5 0h-361.5c-8.284 0-15 6.716-15 15v482c0 8.284 6.716 15 15 15h361.5c8.284 0 15-6.716 15-15v-482c0-8.284-6.716-15-15-15zm-15 482h-331.5v-452h331.5z"/><path d="m105.375 180.625h60.25c8.284 0 15-6.716 15-15v-60.25c0-8.284-6.716-15-15-15h-60.25c-8.284 0-15 6.716-15 15v60.25c0 8.284 6.716 15 15 15zm15-60.25h30.25v30.25h-30.25z"/><path d="m286.125 210.875h-60.25c-8.284 0-15 6.716-15 15v60.25c0 8.284 6.716 15 15 15h60.25c8.284 0 15-6.716 15-15v-60.25c0-8.284-6.716-15-15-15zm-15 60.25h-30.25v-30.25h30.25z"/><path d="m286.125 331.375h-60.25c-8.284 0-15 6.716-15 15v60.25c0 8.284 6.716 15 15 15h60.25c8.284 0 15-6.716 15-15v-60.25c0-8.284-6.716-15-15-15zm-15 60.25h-30.25v-30.25h30.25z"/><path d="m224.626 159.468c1.939 4.625 6.062 7.975 10.986 8.926.947.183 1.899.273 2.846.273 3.973 0 7.83-1.581 10.676-4.463l47.667-48.292c5.819-5.896 5.758-15.394-.139-21.213-5.895-5.819-15.393-5.758-21.213.138l-31.861 32.279-3.88-9.252c-3.204-7.639-11.995-11.236-19.635-8.031-7.64 3.204-11.235 11.995-8.031 19.634z"/><path d="m104.126 285.948c1.939 4.625 6.062 7.975 10.986 8.926.947.183 1.899.272 2.846.272 3.973 0 7.83-1.58 10.676-4.463l47.667-48.292c5.819-5.896 5.758-15.393-.139-21.212-5.895-5.819-15.393-5.759-21.213.138l-31.861 32.279-3.88-9.252c-3.205-7.639-11.995-11.234-19.635-8.031-7.64 3.204-11.235 11.995-8.031 19.634z"/><path d="m104.126 406.448c1.939 4.625 6.062 7.975 10.986 8.926.947.183 1.899.272 2.846.272 3.973 0 7.83-1.58 10.676-4.463l47.667-48.292c5.819-5.896 5.758-15.393-.139-21.212-5.895-5.819-15.393-5.759-21.213.138l-31.861 32.279-3.88-9.252c-3.205-7.639-11.995-11.235-19.635-8.031s-11.235 11.995-8.031 19.634z"/></g></symbol><symbol id="report-vital-signs" viewBox="0 0 512 512"><g><path d="m497 54.5h-482c-8.284 0-15 6.716-15 15v309.25c0 8.284 6.716 15 15 15h12.585v48.75c0 8.284 6.716 15 15 15h426.83c8.284 0 15-6.716 15-15v-48.75h12.585c8.284 0 15-6.716 15-15v-309.25c0-8.284-6.716-15-15-15zm-467 309.25v-279.25h150.187v279.25zm65.18 63.75h-37.595v-33.75h37.595zm292.585 0h-262.585v-33.75h262.585zm66.65 0h-36.65v-33.75h36.65zm27.585-63.75h-271.813v-34.692h85.133c5.329 0 10.259-2.828 12.948-7.428l16.802-28.732 18.465 30.238c2.725 4.461 7.574 7.183 12.802 7.183h125.663zm0-63.432h-117.247l-27.16-44.476c-2.75-4.505-7.658-7.21-12.945-7.182-5.277.05-10.141 2.871-12.805 7.428l-25.127 42.97h-76.529v-214.558h271.813z"/><path d="m135.5 114.895h-60.865c-8.284 0-15 6.716-15 15v135.17c0 8.284 6.716 15 15 15h60.865c8.284 0 15-6.716 15-15v-135.17c0-8.285-6.716-15-15-15zm-15 135.17h-30.865v-105.17h30.865z"/><path d="m383.668 236.265c2.131 1.095 4.482 1.659 6.856 1.659 3.958-.375 4.839.021 15.808-6.724 23.915-13.312 50.083-45.753 48.199-71.654.026-33.721-38.456-51.367-64.021-32.7-6.761-4.906-15.003-7.736-23.622-7.736-22.084-.55-40.62 19.755-40.337 42.358 0 44.928 54.785 73.599 57.117 74.797zm-27.113-74.797c.285-4.903 2.671-12.111 10.293-12.358 4.311 0 8.104 2.613 9.666 6.656 2.233 5.783 7.793 9.597 13.992 9.597h.001c6.199 0 11.76-3.813 13.992-9.596 1.562-4.044 5.357-6.658 9.668-6.658 5.715 0 10.364 4.682 10.364 10.437 0 21.89-22.619 38.924-33.933 46.069-13.069-8.391-33.843-25.559-34.046-43.877.002-.09.003-.18.003-.27z"/><circle cx="75.565" cy="320.049" r="15"/><circle cx="133.206" cy="320.049" r="15"/></g><g/><g/><g/><g/><g/><g/><g/><g/><g/><g/><g/><g/><g/><g/><g/></symbol><symbol id="transcript" viewBox="0 0 512 512"><g><path d="m0 349.022c0 12.187 13.808 19.277 23.711 12.211l82.471-58.832c6.917-4.934 15.065-7.542 23.563-7.542h181.382c31.928 0 57.902-25.975 57.902-57.902v-190.331c0-8.284-6.716-15-15-15h-296.127c-31.927 0-57.902 25.974-57.902 57.902zm30-259.494c0-15.386 12.517-27.902 27.902-27.902h281.126v175.331c0 15.386-12.517 27.902-27.902 27.902h-181.382c-14.78 0-28.952 4.537-40.984 13.12l-58.76 41.917z"/><path d="m512 205.876c0-31.932-25.974-57.91-57.9-57.91h-40.07c-8.284 0-15 6.716-15 15s6.716 15 15 15h40.07c15.385 0 27.9 12.521 27.9 27.91v230.364l-58.759-41.915c-12.031-8.583-26.202-13.119-40.981-13.119h-181.39c-15.385 0-27.9-12.521-27.9-27.91v-13.439c0-8.284-6.716-15-15-15s-15 6.716-15 15v13.439c0 31.932 25.974 57.91 57.9 57.91h181.39c8.497 0 16.644 2.607 23.56 7.541l82.47 58.83c9.853 7.031 23.711.015 23.711-12.211v-259.49z"/><path d="m107.862 143.339h173.304c8.284 0 15-6.716 15-15s-6.716-15-15-15h-173.304c-8.284 0-15 6.716-15 15s6.716 15 15 15z"/><path d="m107.862 213.339h173.304c8.284 0 15-6.716 15-15s-6.716-15-15-15h-173.304c-8.284 0-15 6.716-15 15s6.716 15 15 15z"/></g></symbol><symbol id="warning" viewBox="0 0 682.7 682.7">
  <!-- Generator: Adobe Illustrator 29.0.1, SVG Export Plug-In . SVG Version: 2.1.0 Build 192)  -->
  <g id="g2179">
    <path d="M576,661.3H106.7c-58.8,0-106.7-47.9-106.7-106.7s4.7-36.3,13.6-52.1L248.2,75.9c0,0,0-.1.1-.2,18.9-33.6,54.5-54.4,93-54.4s74.1,20.9,93,54.4c0,0,0,.1.1.2l234.6,426.6c8.9,15.8,13.6,33.9,13.6,52.1,0,58.8-47.9,106.7-106.7,106.7ZM294.9,101.8L60.3,528.3c0,0,0,.1-.1.2-4.4,7.9-6.8,16.9-6.8,26.1,0,29.4,23.9,53.3,53.3,53.3h469.3c29.4,0,53.3-23.9,53.3-53.3s-2.4-18.2-6.8-26.1c0,0,0-.1-.1-.2L387.8,101.8c-9.5-16.7-27.3-27.1-46.5-27.1s-37,10.4-46.5,27.1Z"/>
  </g>
  <g id="g2183">
    <path d="M341.3,421.3c-14.7,0-26.7-11.9-26.7-26.7v-160c0-14.7,11.9-26.7,26.7-26.7s26.7,11.9,26.7,26.7v160c0,14.7-11.9,26.7-26.7,26.7Z"/>
  </g>
  <g id="g2187">
    <path id="path2189" d="M368,501.3c0,14.7-11.9,26.7-26.7,26.7s-26.7-11.9-26.7-26.7,11.9-26.7,26.7-26.7,26.7,11.9,26.7,26.7"/>
  </g>
</symbol></svg>